<svg width="428" height="280" viewBox="0 0 428 280" fill="none" xmlns="http://www.w3.org/2000/svg">
<g filter="url(#filter0_d_944_1806)">
<rect x="9" y="9" width="408" height="260" rx="15" fill="#001D3D"/>
</g>
<path d="M114.993 89V71.5455H118.155V78.9347H126.243V71.5455H129.413V89H126.243V81.5852H118.155V89H114.993ZM138.315 89.2557C137.003 89.2557 135.869 88.983 134.915 88.4375C133.966 87.8864 133.236 87.108 132.724 86.1023C132.213 85.0909 131.957 83.9006 131.957 82.5312C131.957 81.1847 132.213 80.0028 132.724 78.9858C133.241 77.9631 133.963 77.1676 134.889 76.5994C135.815 76.0256 136.903 75.7386 138.153 75.7386C138.96 75.7386 139.721 75.8693 140.437 76.1307C141.159 76.3864 141.795 76.7841 142.346 77.3239C142.903 77.8636 143.341 78.5511 143.659 79.3864C143.977 80.2159 144.136 81.2045 144.136 82.3523V83.2983H133.406V81.2188H141.179C141.173 80.6278 141.045 80.1023 140.795 79.642C140.545 79.1761 140.196 78.8097 139.747 78.5426C139.304 78.2756 138.787 78.142 138.196 78.142C137.565 78.142 137.011 78.2955 136.534 78.6023C136.057 78.9034 135.685 79.3011 135.417 79.7955C135.156 80.2841 135.023 80.821 135.017 81.4062V83.2216C135.017 83.983 135.156 84.6364 135.435 85.1818C135.713 85.7216 136.102 86.1364 136.602 86.4261C137.102 86.7102 137.687 86.8523 138.358 86.8523C138.807 86.8523 139.213 86.7898 139.577 86.6648C139.94 86.5341 140.256 86.3438 140.523 86.0938C140.79 85.8438 140.991 85.5341 141.128 85.1648L144.008 85.4886C143.827 86.25 143.48 86.9148 142.969 87.483C142.463 88.0455 141.815 88.483 141.025 88.7955C140.236 89.1023 139.332 89.2557 138.315 89.2557ZM146.55 89V75.9091H149.542V78.0909H149.678C149.917 77.3352 150.326 76.7528 150.905 76.3438C151.491 75.929 152.158 75.7216 152.908 75.7216C153.079 75.7216 153.269 75.7301 153.479 75.7472C153.695 75.7585 153.874 75.7784 154.016 75.8068V78.6449C153.886 78.5994 153.678 78.5597 153.394 78.5256C153.116 78.4858 152.846 78.4659 152.584 78.4659C152.022 78.4659 151.516 78.5881 151.067 78.8324C150.624 79.071 150.275 79.4034 150.019 79.8295C149.763 80.2557 149.636 80.7472 149.636 81.304V89H146.55ZM161.126 89.2557C159.814 89.2557 158.68 88.983 157.726 88.4375C156.777 87.8864 156.047 87.108 155.535 86.1023C155.024 85.0909 154.768 83.9006 154.768 82.5312C154.768 81.1847 155.024 80.0028 155.535 78.9858C156.052 77.9631 156.774 77.1676 157.7 76.5994C158.626 76.0256 159.714 75.7386 160.964 75.7386C161.771 75.7386 162.533 75.8693 163.248 76.1307C163.97 76.3864 164.606 76.7841 165.158 77.3239C165.714 77.8636 166.152 78.5511 166.47 79.3864C166.788 80.2159 166.947 81.2045 166.947 82.3523V83.2983H156.217V81.2188H163.99C163.984 80.6278 163.856 80.1023 163.606 79.642C163.356 79.1761 163.007 78.8097 162.558 78.5426C162.115 78.2756 161.598 78.142 161.007 78.142C160.376 78.142 159.822 78.2955 159.345 78.6023C158.868 78.9034 158.496 79.3011 158.229 79.7955C157.967 80.2841 157.834 80.821 157.828 81.4062V83.2216C157.828 83.983 157.967 84.6364 158.246 85.1818C158.524 85.7216 158.913 86.1364 159.413 86.4261C159.913 86.7102 160.498 86.8523 161.169 86.8523C161.618 86.8523 162.024 86.7898 162.388 86.6648C162.751 86.5341 163.067 86.3438 163.334 86.0938C163.601 85.8438 163.802 85.5341 163.939 85.1648L166.819 85.4886C166.638 86.25 166.291 86.9148 165.78 87.483C165.274 88.0455 164.626 88.483 163.837 88.7955C163.047 89.1023 162.143 89.2557 161.126 89.2557ZM178.417 71.5455V89H175.255V71.5455H178.417ZM191.855 79.3693L189.043 79.6761C188.963 79.392 188.824 79.125 188.625 78.875C188.432 78.625 188.17 78.4233 187.841 78.2699C187.511 78.1165 187.108 78.0398 186.631 78.0398C185.989 78.0398 185.449 78.179 185.011 78.4574C184.579 78.7358 184.366 79.0966 184.372 79.5398C184.366 79.9205 184.506 80.2301 184.79 80.4688C185.079 80.7074 185.557 80.9034 186.222 81.0568L188.454 81.5341C189.693 81.8011 190.614 82.2244 191.216 82.804C191.824 83.3835 192.131 84.142 192.136 85.0795C192.131 85.9034 191.889 86.6307 191.412 87.2614C190.94 87.8864 190.284 88.375 189.443 88.7273C188.602 89.0795 187.636 89.2557 186.545 89.2557C184.943 89.2557 183.653 88.9205 182.676 88.25C181.699 87.5739 181.116 86.6335 180.929 85.429L183.937 85.1392C184.074 85.7301 184.364 86.1761 184.807 86.4773C185.25 86.7784 185.827 86.929 186.537 86.929C187.27 86.929 187.858 86.7784 188.301 86.4773C188.75 86.1761 188.974 85.804 188.974 85.3608C188.974 84.9858 188.829 84.6761 188.54 84.4318C188.256 84.1875 187.812 84 187.21 83.8693L184.977 83.4006C183.722 83.1392 182.793 82.6989 182.19 82.0795C181.588 81.4545 181.29 80.6648 181.295 79.7102C181.29 78.9034 181.508 78.2045 181.952 77.6136C182.401 77.017 183.023 76.5568 183.818 76.233C184.619 75.9034 185.543 75.7386 186.588 75.7386C188.122 75.7386 189.329 76.0653 190.21 76.7188C191.097 77.3722 191.645 78.2557 191.855 79.3693ZM199.185 71.5455H202.756L207.026 79.267H207.196L211.466 71.5455H215.037L208.688 82.4886V89H205.534V82.4886L199.185 71.5455ZM220.217 89.2557C218.938 89.2557 217.83 88.9744 216.893 88.4119C215.955 87.8494 215.228 87.0625 214.711 86.0511C214.2 85.0398 213.944 83.858 213.944 82.5057C213.944 81.1534 214.2 79.9687 214.711 78.9517C215.228 77.9347 215.955 77.1449 216.893 76.5824C217.83 76.0199 218.938 75.7386 220.217 75.7386C221.495 75.7386 222.603 76.0199 223.541 76.5824C224.478 77.1449 225.202 77.9347 225.714 78.9517C226.231 79.9687 226.489 81.1534 226.489 82.5057C226.489 83.858 226.231 85.0398 225.714 86.0511C225.202 87.0625 224.478 87.8494 223.541 88.4119C222.603 88.9744 221.495 89.2557 220.217 89.2557ZM220.234 86.7841C220.927 86.7841 221.506 86.5937 221.972 86.2131C222.438 85.8267 222.785 85.3097 223.012 84.6619C223.245 84.0142 223.362 83.2926 223.362 82.4972C223.362 81.696 223.245 80.9716 223.012 80.3239C222.785 79.6705 222.438 79.1506 221.972 78.7642C221.506 78.3778 220.927 78.1847 220.234 78.1847C219.523 78.1847 218.933 78.3778 218.461 78.7642C217.995 79.1506 217.646 79.6705 217.413 80.3239C217.185 80.9716 217.072 81.696 217.072 82.4972C217.072 83.2926 217.185 84.0142 217.413 84.6619C217.646 85.3097 217.995 85.8267 218.461 86.2131C218.933 86.5937 219.523 86.7841 220.234 86.7841ZM237.256 83.4943V75.9091H240.341V89H237.349V86.6733H237.213C236.918 87.4062 236.432 88.0057 235.756 88.4716C235.085 88.9375 234.259 89.1705 233.276 89.1705C232.418 89.1705 231.659 88.9801 231 88.5994C230.347 88.2131 229.835 87.6534 229.466 86.9205C229.097 86.1818 228.912 85.2898 228.912 84.2443V75.9091H231.997V83.767C231.997 84.5966 232.224 85.2557 232.679 85.7443C233.134 86.233 233.73 86.4773 234.469 86.4773C234.923 86.4773 235.364 86.3665 235.79 86.1449C236.216 85.9233 236.565 85.5938 236.838 85.1562C237.117 84.7131 237.256 84.1591 237.256 83.4943ZM243.318 89V75.9091H246.309V78.0909H246.445C246.684 77.3352 247.093 76.7528 247.673 76.3438C248.258 75.929 248.925 75.7216 249.675 75.7216C249.846 75.7216 250.036 75.7301 250.247 75.7472C250.462 75.7585 250.641 75.7784 250.783 75.8068V78.6449C250.653 78.5994 250.445 78.5597 250.161 78.5256C249.883 78.4858 249.613 78.4659 249.352 78.4659C248.789 78.4659 248.283 78.5881 247.835 78.8324C247.391 79.071 247.042 79.4034 246.786 79.8295C246.531 80.2557 246.403 80.7472 246.403 81.304V89H243.318ZM274.127 80.2727C274.127 82.1534 273.775 83.7642 273.07 85.1051C272.372 86.4403 271.417 87.4631 270.207 88.1733C269.002 88.8835 267.636 89.2386 266.107 89.2386C264.579 89.2386 263.21 88.8835 261.999 88.1733C260.795 87.4574 259.84 86.4318 259.136 85.0966C258.437 83.7557 258.087 82.1477 258.087 80.2727C258.087 78.392 258.437 76.7841 259.136 75.4489C259.84 74.108 260.795 73.0824 261.999 72.3722C263.21 71.6619 264.579 71.3068 266.107 71.3068C267.636 71.3068 269.002 71.6619 270.207 72.3722C271.417 73.0824 272.372 74.108 273.07 75.4489C273.775 76.7841 274.127 78.392 274.127 80.2727ZM270.948 80.2727C270.948 78.9489 270.741 77.8324 270.326 76.9233C269.917 76.0085 269.349 75.3182 268.622 74.8523C267.894 74.3807 267.056 74.1449 266.107 74.1449C265.158 74.1449 264.32 74.3807 263.593 74.8523C262.866 75.3182 262.295 76.0085 261.88 76.9233C261.471 77.8324 261.266 78.9489 261.266 80.2727C261.266 81.5966 261.471 82.7159 261.88 83.6307C262.295 84.5398 262.866 85.2301 263.593 85.7017C264.32 86.1676 265.158 86.4006 266.107 86.4006C267.056 86.4006 267.894 86.1676 268.622 85.7017C269.349 85.2301 269.917 84.5398 270.326 83.6307C270.741 82.7159 270.948 81.5966 270.948 80.2727ZM275.38 74.196V71.5455H289.306V74.196H283.911V89H280.775V74.196H275.38ZM291.795 89V71.5455H298.34C299.681 71.5455 300.806 71.7955 301.715 72.2955C302.63 72.7955 303.32 73.483 303.786 74.358C304.258 75.2273 304.494 76.2159 304.494 77.3239C304.494 78.4432 304.258 79.4375 303.786 80.3068C303.315 81.1761 302.619 81.8608 301.698 82.3608C300.778 82.8551 299.644 83.1023 298.298 83.1023H293.96V80.5028H297.872C298.656 80.5028 299.298 80.3665 299.798 80.0938C300.298 79.821 300.667 79.446 300.906 78.9688C301.15 78.4915 301.272 77.9432 301.272 77.3239C301.272 76.7045 301.15 76.1591 300.906 75.6875C300.667 75.2159 300.295 74.8494 299.789 74.5881C299.289 74.321 298.644 74.1875 297.855 74.1875H294.957V89H291.795ZM310.683 71.5455L310.402 83.8693H307.658L307.385 71.5455H310.683ZM309.03 89.1875C308.513 89.1875 308.07 89.0057 307.7 88.642C307.337 88.2784 307.155 87.8352 307.155 87.3125C307.155 86.8011 307.337 86.3636 307.7 86C308.07 85.6364 308.513 85.4545 309.03 85.4545C309.536 85.4545 309.973 85.6364 310.343 86C310.718 86.3636 310.905 86.8011 310.905 87.3125C310.905 87.6591 310.817 87.9744 310.641 88.2585C310.47 88.5426 310.243 88.7699 309.959 88.9403C309.681 89.1051 309.371 89.1875 309.03 89.1875Z" fill="white"/>
<path d="M53.1018 126H50.8518L54.9484 114.364H57.5507L61.6529 126H59.4029L56.295 116.75H56.2041L53.1018 126ZM53.1757 121.438H59.312V123.131H53.1757V121.438ZM69.6558 119.58L67.7808 119.784C67.7278 119.595 67.635 119.417 67.5024 119.25C67.3736 119.083 67.1994 118.949 66.9797 118.847C66.76 118.744 66.491 118.693 66.1728 118.693C65.7448 118.693 65.385 118.786 65.0933 118.972C64.8054 119.157 64.6634 119.398 64.6672 119.693C64.6634 119.947 64.7562 120.153 64.9456 120.312C65.1387 120.472 65.4569 120.602 65.9001 120.705L67.3887 121.023C68.2145 121.201 68.8281 121.483 69.2297 121.869C69.635 122.256 69.8395 122.761 69.8433 123.386C69.8395 123.936 69.6785 124.42 69.3603 124.841C69.0459 125.258 68.6084 125.583 68.0478 125.818C67.4872 126.053 66.8433 126.17 66.116 126.17C65.0478 126.17 64.188 125.947 63.5365 125.5C62.885 125.049 62.4967 124.422 62.3717 123.619L64.3774 123.426C64.4683 123.82 64.6615 124.117 64.9569 124.318C65.2524 124.519 65.6369 124.619 66.1103 124.619C66.599 124.619 66.991 124.519 67.2865 124.318C67.5857 124.117 67.7353 123.869 67.7353 123.574C67.7353 123.324 67.6387 123.117 67.4456 122.955C67.2562 122.792 66.9607 122.667 66.5592 122.58L65.0706 122.267C64.2334 122.093 63.6141 121.799 63.2126 121.386C62.8111 120.97 62.6122 120.443 62.616 119.807C62.6122 119.269 62.7581 118.803 63.0535 118.409C63.3528 118.011 63.7675 117.705 64.2978 117.489C64.8319 117.269 65.4475 117.159 66.1444 117.159C67.1672 117.159 67.9721 117.377 68.5592 117.812C69.1501 118.248 69.5156 118.837 69.6558 119.58ZM73.2183 123.261L73.2126 120.778H73.5422L76.6785 117.273H79.082L75.224 121.568H74.7979L73.2183 123.261ZM71.3433 126V114.364H73.4001V126H71.3433ZM76.8206 126L73.9797 122.028L75.366 120.58L79.2808 126H76.8206ZM84.0294 129.273V117.273H86.0522V118.716H86.1715C86.2775 118.504 86.4272 118.278 86.6203 118.04C86.8135 117.797 87.0749 117.591 87.4044 117.42C87.734 117.246 88.1544 117.159 88.6658 117.159C89.34 117.159 89.948 117.331 90.4897 117.676C91.0351 118.017 91.4669 118.523 91.7851 119.193C92.1071 119.86 92.2681 120.678 92.2681 121.648C92.2681 122.606 92.1109 123.42 91.7965 124.091C91.4821 124.761 91.0541 125.273 90.5124 125.625C89.9707 125.977 89.3571 126.153 88.6715 126.153C88.1715 126.153 87.7567 126.07 87.4272 125.903C87.0976 125.737 86.8325 125.536 86.6317 125.301C86.4347 125.062 86.2813 124.837 86.1715 124.625H86.0863V129.273H84.0294ZM86.0465 121.636C86.0465 122.201 86.126 122.695 86.2851 123.119C86.448 123.544 86.681 123.875 86.984 124.114C87.2908 124.348 87.662 124.466 88.0976 124.466C88.5522 124.466 88.9328 124.345 89.2397 124.102C89.5465 123.856 89.7775 123.521 89.9328 123.097C90.0919 122.669 90.1715 122.182 90.1715 121.636C90.1715 121.095 90.0938 120.614 89.9385 120.193C89.7832 119.773 89.5522 119.443 89.2453 119.205C88.9385 118.966 88.556 118.847 88.0976 118.847C87.6582 118.847 87.2851 118.962 86.9783 119.193C86.6715 119.424 86.4385 119.748 86.2794 120.165C86.1241 120.581 86.0465 121.072 86.0465 121.636ZM99.3959 122.33V117.273H101.453V126H99.4584V124.449H99.3675C99.1706 124.937 98.8467 125.337 98.3959 125.648C97.949 125.958 97.3978 126.114 96.7425 126.114C96.1706 126.114 95.6649 125.987 95.2255 125.733C94.7899 125.475 94.449 125.102 94.2028 124.614C93.9565 124.121 93.8334 123.527 93.8334 122.83V117.273H95.8903V122.511C95.8903 123.064 96.0418 123.504 96.3448 123.83C96.6478 124.155 97.0456 124.318 97.538 124.318C97.841 124.318 98.1346 124.244 98.4187 124.097C98.7028 123.949 98.9357 123.729 99.1175 123.438C99.3031 123.142 99.3959 122.773 99.3959 122.33ZM107.73 117.273V118.864H102.713V117.273H107.73ZM103.951 115.182H106.008V123.375C106.008 123.652 106.05 123.864 106.133 124.011C106.22 124.155 106.334 124.254 106.474 124.307C106.614 124.36 106.77 124.386 106.94 124.386C107.069 124.386 107.186 124.377 107.292 124.358C107.402 124.339 107.485 124.322 107.542 124.307L107.889 125.915C107.779 125.953 107.622 125.994 107.417 126.04C107.217 126.085 106.97 126.112 106.679 126.119C106.163 126.134 105.699 126.057 105.287 125.886C104.874 125.712 104.546 125.443 104.304 125.08C104.065 124.716 103.948 124.261 103.951 123.716V115.182ZM109.254 126V117.273H111.248V118.727H111.339C111.498 118.223 111.771 117.835 112.157 117.562C112.547 117.286 112.993 117.148 113.493 117.148C113.606 117.148 113.733 117.153 113.873 117.165C114.017 117.172 114.137 117.186 114.231 117.205V119.097C114.144 119.066 114.006 119.04 113.816 119.017C113.631 118.991 113.451 118.977 113.277 118.977C112.902 118.977 112.565 119.059 112.265 119.222C111.97 119.381 111.737 119.602 111.566 119.886C111.396 120.17 111.311 120.498 111.311 120.869V126H109.254ZM117.757 126.176C117.204 126.176 116.706 126.078 116.262 125.881C115.823 125.68 115.475 125.384 115.217 124.994C114.963 124.604 114.836 124.123 114.836 123.551C114.836 123.059 114.927 122.652 115.109 122.33C115.291 122.008 115.539 121.75 115.853 121.557C116.168 121.364 116.522 121.218 116.916 121.119C117.314 121.017 117.725 120.943 118.149 120.898C118.66 120.845 119.075 120.797 119.393 120.756C119.711 120.71 119.942 120.642 120.086 120.551C120.234 120.456 120.308 120.311 120.308 120.114V120.08C120.308 119.652 120.181 119.32 119.927 119.085C119.673 118.85 119.308 118.733 118.831 118.733C118.327 118.733 117.927 118.843 117.632 119.062C117.34 119.282 117.143 119.542 117.041 119.841L115.12 119.568C115.272 119.038 115.522 118.595 115.87 118.239C116.219 117.879 116.645 117.61 117.149 117.432C117.653 117.25 118.209 117.159 118.819 117.159C119.24 117.159 119.658 117.208 120.075 117.307C120.492 117.405 120.872 117.568 121.217 117.795C121.562 118.019 121.838 118.324 122.047 118.71C122.259 119.097 122.365 119.58 122.365 120.159V126H120.387V124.801H120.319C120.194 125.044 120.018 125.271 119.791 125.483C119.567 125.691 119.285 125.86 118.944 125.989C118.607 126.114 118.211 126.176 117.757 126.176ZM118.291 124.665C118.704 124.665 119.062 124.583 119.365 124.42C119.668 124.254 119.901 124.034 120.064 123.761C120.23 123.489 120.314 123.191 120.314 122.869V121.841C120.249 121.894 120.139 121.943 119.984 121.989C119.833 122.034 119.662 122.074 119.473 122.108C119.283 122.142 119.096 122.172 118.91 122.199C118.725 122.225 118.564 122.248 118.427 122.267C118.12 122.309 117.846 122.377 117.603 122.472C117.361 122.566 117.17 122.699 117.03 122.869C116.889 123.036 116.819 123.252 116.819 123.517C116.819 123.896 116.958 124.182 117.234 124.375C117.511 124.568 117.863 124.665 118.291 124.665ZM124.407 126V117.273H125.703V118.591H125.794C125.953 118.159 126.241 117.809 126.657 117.54C127.074 117.271 127.544 117.136 128.066 117.136C128.165 117.136 128.288 117.138 128.436 117.142C128.584 117.146 128.695 117.152 128.771 117.159V118.523C128.726 118.511 128.621 118.494 128.459 118.472C128.299 118.445 128.131 118.432 127.953 118.432C127.529 118.432 127.15 118.521 126.816 118.699C126.487 118.873 126.226 119.116 126.032 119.426C125.843 119.733 125.748 120.083 125.748 120.477V126H124.407ZM130.165 126V117.273H131.505V126H130.165ZM130.846 115.818C130.585 115.818 130.36 115.729 130.17 115.551C129.985 115.373 129.892 115.159 129.892 114.909C129.892 114.659 129.985 114.445 130.17 114.267C130.36 114.089 130.585 114 130.846 114C131.108 114 131.331 114.089 131.517 114.267C131.706 114.445 131.801 114.659 131.801 114.909C131.801 115.159 131.706 115.373 131.517 115.551C131.331 115.729 131.108 115.818 130.846 115.818ZM137.652 117.273V118.409H132.947V117.273H137.652ZM134.356 126V116.068C134.356 115.568 134.474 115.152 134.709 114.818C134.943 114.485 135.248 114.235 135.623 114.068C135.998 113.902 136.394 113.818 136.811 113.818C137.14 113.818 137.409 113.845 137.618 113.898C137.826 113.951 137.981 114 138.084 114.045L137.697 115.205C137.629 115.182 137.534 115.153 137.413 115.119C137.296 115.085 137.14 115.068 136.947 115.068C136.504 115.068 136.184 115.18 135.987 115.403C135.794 115.627 135.697 115.955 135.697 116.386V126H134.356ZM139.335 126V117.273H140.676V126H139.335ZM140.017 115.818C139.755 115.818 139.53 115.729 139.341 115.551C139.155 115.373 139.062 115.159 139.062 114.909C139.062 114.659 139.155 114.445 139.341 114.267C139.53 114.089 139.755 114 140.017 114C140.278 114 140.502 114.089 140.687 114.267C140.877 114.445 140.971 114.659 140.971 114.909C140.971 115.159 140.877 115.373 140.687 115.551C140.502 115.729 140.278 115.818 140.017 115.818ZM144.277 120.75V126H142.936V117.273H144.231V118.636H144.345C144.55 118.193 144.86 117.837 145.277 117.568C145.693 117.295 146.231 117.159 146.89 117.159C147.481 117.159 147.998 117.28 148.442 117.523C148.885 117.761 149.229 118.125 149.476 118.614C149.722 119.098 149.845 119.712 149.845 120.455V126H148.504V120.545C148.504 119.86 148.326 119.326 147.97 118.943C147.614 118.557 147.125 118.364 146.504 118.364C146.076 118.364 145.693 118.456 145.356 118.642C145.023 118.828 144.76 119.098 144.567 119.455C144.373 119.811 144.277 120.242 144.277 120.75ZM158.804 129.068C157.645 129.068 156.62 128.909 155.73 128.591C154.84 128.277 154.092 127.813 153.486 127.199C152.88 126.585 152.421 125.833 152.111 124.943C151.8 124.053 151.645 123.034 151.645 121.886C151.645 120.777 151.802 119.784 152.116 118.909C152.434 118.034 152.895 117.292 153.497 116.682C154.103 116.068 154.838 115.6 155.702 115.278C156.569 114.956 157.55 114.795 158.645 114.795C159.709 114.795 160.641 114.97 161.44 115.318C162.243 115.663 162.914 116.131 163.452 116.722C163.993 117.309 164.399 117.97 164.667 118.705C164.94 119.439 165.077 120.197 165.077 120.977C165.077 121.527 165.05 122.083 164.997 122.648C164.944 123.212 164.832 123.731 164.662 124.205C164.491 124.674 164.228 125.053 163.872 125.341C163.52 125.629 163.042 125.773 162.44 125.773C162.175 125.773 161.883 125.731 161.565 125.648C161.247 125.564 160.965 125.426 160.719 125.233C160.472 125.04 160.327 124.78 160.281 124.455H160.213C160.122 124.674 159.982 124.883 159.792 125.08C159.607 125.277 159.363 125.434 159.059 125.551C158.76 125.669 158.395 125.72 157.963 125.705C157.47 125.686 157.037 125.576 156.662 125.375C156.287 125.17 155.972 124.894 155.719 124.545C155.469 124.193 155.279 123.786 155.15 123.324C155.025 122.858 154.963 122.356 154.963 121.818C154.963 121.307 155.039 120.839 155.19 120.415C155.342 119.991 155.552 119.619 155.821 119.301C156.094 118.983 156.412 118.729 156.775 118.54C157.143 118.347 157.539 118.227 157.963 118.182C158.342 118.144 158.686 118.161 158.997 118.233C159.308 118.301 159.563 118.405 159.764 118.545C159.965 118.682 160.092 118.833 160.145 119H160.213V118.364H161.417V123.5C161.417 123.818 161.506 124.098 161.684 124.341C161.863 124.583 162.122 124.705 162.463 124.705C162.849 124.705 163.145 124.572 163.349 124.307C163.558 124.042 163.7 123.633 163.775 123.08C163.855 122.527 163.895 121.818 163.895 120.955C163.895 120.447 163.825 119.947 163.684 119.455C163.548 118.958 163.34 118.494 163.059 118.062C162.783 117.631 162.433 117.25 162.008 116.92C161.584 116.591 161.086 116.333 160.514 116.148C159.946 115.958 159.3 115.864 158.577 115.864C157.686 115.864 156.889 116.002 156.184 116.278C155.484 116.551 154.887 116.951 154.395 117.477C153.906 118 153.533 118.636 153.275 119.386C153.022 120.133 152.895 120.981 152.895 121.932C152.895 122.898 153.022 123.756 153.275 124.506C153.533 125.256 153.912 125.888 154.412 126.403C154.916 126.919 155.539 127.309 156.281 127.574C157.024 127.843 157.88 127.977 158.849 127.977C159.266 127.977 159.677 127.938 160.082 127.858C160.488 127.778 160.845 127.691 161.156 127.597C161.467 127.502 161.69 127.432 161.827 127.386L162.145 128.432C161.91 128.53 161.603 128.629 161.224 128.727C160.849 128.826 160.448 128.907 160.02 128.972C159.595 129.036 159.19 129.068 158.804 129.068ZM158.145 124.545C158.652 124.545 159.063 124.443 159.378 124.239C159.692 124.034 159.921 123.725 160.065 123.312C160.209 122.9 160.281 122.379 160.281 121.75C160.281 121.114 160.202 120.617 160.042 120.261C159.883 119.905 159.649 119.655 159.338 119.511C159.027 119.367 158.645 119.295 158.19 119.295C157.758 119.295 157.389 119.409 157.082 119.636C156.779 119.86 156.546 120.159 156.383 120.534C156.224 120.905 156.145 121.311 156.145 121.75C156.145 122.235 156.209 122.691 156.338 123.119C156.467 123.544 156.677 123.888 156.969 124.153C157.26 124.415 157.652 124.545 158.145 124.545ZM170.41 129.455C169.763 129.455 169.206 129.371 168.74 129.205C168.274 129.042 167.886 128.826 167.575 128.557C167.268 128.292 167.024 128.008 166.842 127.705L167.91 126.955C168.032 127.114 168.185 127.295 168.371 127.5C168.556 127.708 168.81 127.888 169.132 128.04C169.458 128.195 169.884 128.273 170.41 128.273C171.115 128.273 171.696 128.102 172.155 127.761C172.613 127.42 172.842 126.886 172.842 126.159V124.386H172.729C172.63 124.545 172.49 124.742 172.308 124.977C172.13 125.208 171.872 125.415 171.535 125.597C171.202 125.775 170.751 125.864 170.183 125.864C169.479 125.864 168.846 125.697 168.285 125.364C167.729 125.03 167.287 124.545 166.962 123.909C166.64 123.273 166.479 122.5 166.479 121.591C166.479 120.697 166.636 119.919 166.95 119.256C167.265 118.589 167.702 118.074 168.263 117.71C168.823 117.343 169.471 117.159 170.206 117.159C170.774 117.159 171.225 117.254 171.558 117.443C171.895 117.629 172.153 117.841 172.331 118.08C172.513 118.314 172.653 118.508 172.751 118.659H172.888V117.273H174.183V126.25C174.183 127 174.013 127.61 173.672 128.08C173.335 128.553 172.88 128.9 172.308 129.119C171.74 129.343 171.107 129.455 170.41 129.455ZM170.365 124.659C170.903 124.659 171.357 124.536 171.729 124.29C172.1 124.044 172.382 123.689 172.575 123.227C172.768 122.765 172.865 122.212 172.865 121.568C172.865 120.939 172.77 120.384 172.581 119.903C172.391 119.422 172.111 119.045 171.74 118.773C171.369 118.5 170.91 118.364 170.365 118.364C169.797 118.364 169.323 118.508 168.944 118.795C168.569 119.083 168.287 119.47 168.098 119.955C167.912 120.439 167.819 120.977 167.819 121.568C167.819 122.174 167.914 122.71 168.104 123.176C168.297 123.638 168.581 124.002 168.956 124.267C169.335 124.528 169.804 124.659 170.365 124.659ZM176.442 126V117.273H177.737V118.636H177.851C178.033 118.17 178.326 117.809 178.731 117.551C179.137 117.29 179.623 117.159 180.192 117.159C180.767 117.159 181.247 117.29 181.629 117.551C182.016 117.809 182.317 118.17 182.533 118.636H182.623C182.847 118.186 183.182 117.828 183.629 117.562C184.076 117.294 184.612 117.159 185.237 117.159C186.017 117.159 186.656 117.403 187.152 117.892C187.648 118.377 187.896 119.133 187.896 120.159V126H186.555V120.159C186.555 119.515 186.379 119.055 186.027 118.778C185.675 118.502 185.26 118.364 184.783 118.364C184.169 118.364 183.694 118.549 183.356 118.92C183.019 119.288 182.851 119.754 182.851 120.318V126H181.487V120.023C181.487 119.527 181.326 119.127 181.004 118.824C180.682 118.517 180.267 118.364 179.76 118.364C179.411 118.364 179.086 118.456 178.783 118.642C178.483 118.828 178.241 119.085 178.055 119.415C177.873 119.741 177.783 120.117 177.783 120.545V126H176.442ZM192.72 126.205C192.167 126.205 191.665 126.1 191.214 125.892C190.764 125.68 190.406 125.375 190.141 124.977C189.875 124.576 189.743 124.091 189.743 123.523C189.743 123.023 189.841 122.617 190.038 122.307C190.235 121.992 190.498 121.746 190.828 121.568C191.158 121.39 191.521 121.258 191.919 121.17C192.32 121.08 192.724 121.008 193.129 120.955C193.659 120.886 194.089 120.835 194.419 120.801C194.752 120.763 194.995 120.701 195.146 120.614C195.302 120.527 195.379 120.375 195.379 120.159V120.114C195.379 119.553 195.226 119.117 194.919 118.807C194.616 118.496 194.156 118.341 193.538 118.341C192.898 118.341 192.396 118.481 192.033 118.761C191.669 119.042 191.413 119.341 191.266 119.659L189.993 119.205C190.22 118.674 190.523 118.261 190.902 117.966C191.284 117.667 191.701 117.458 192.152 117.341C192.606 117.22 193.053 117.159 193.493 117.159C193.773 117.159 194.095 117.193 194.459 117.261C194.826 117.326 195.18 117.46 195.521 117.665C195.866 117.869 196.152 118.178 196.379 118.591C196.606 119.004 196.72 119.557 196.72 120.25V126H195.379V124.818H195.311C195.22 125.008 195.069 125.21 194.856 125.426C194.644 125.642 194.362 125.826 194.01 125.977C193.658 126.129 193.228 126.205 192.72 126.205ZM192.925 125C193.455 125 193.902 124.896 194.266 124.688C194.633 124.479 194.909 124.21 195.095 123.881C195.284 123.551 195.379 123.205 195.379 122.841V121.614C195.322 121.682 195.197 121.744 195.004 121.801C194.815 121.854 194.595 121.902 194.345 121.943C194.099 121.981 193.858 122.015 193.623 122.045C193.392 122.072 193.205 122.095 193.061 122.114C192.713 122.159 192.387 122.233 192.084 122.335C191.784 122.434 191.542 122.583 191.356 122.784C191.175 122.981 191.084 123.25 191.084 123.591C191.084 124.057 191.256 124.409 191.601 124.648C191.949 124.883 192.391 125 192.925 125ZM198.972 126V117.273H200.312V126H198.972ZM199.653 115.818C199.392 115.818 199.167 115.729 198.977 115.551C198.792 115.373 198.699 115.159 198.699 114.909C198.699 114.659 198.792 114.445 198.977 114.267C199.167 114.089 199.392 114 199.653 114C199.915 114 200.138 114.089 200.324 114.267C200.513 114.445 200.608 114.659 200.608 114.909C200.608 115.159 200.513 115.373 200.324 115.551C200.138 115.729 199.915 115.818 199.653 115.818ZM203.913 114.364V126H202.572V114.364H203.913ZM207.151 126.091C206.87 126.091 206.63 125.991 206.429 125.79C206.228 125.589 206.128 125.348 206.128 125.068C206.128 124.788 206.228 124.547 206.429 124.347C206.63 124.146 206.87 124.045 207.151 124.045C207.431 124.045 207.671 124.146 207.872 124.347C208.073 124.547 208.173 124.788 208.173 125.068C208.173 125.254 208.126 125.424 208.031 125.58C207.94 125.735 207.817 125.86 207.662 125.955C207.51 126.045 207.34 126.091 207.151 126.091ZM213.929 126.182C213.111 126.182 212.406 125.989 211.815 125.602C211.224 125.216 210.77 124.684 210.452 124.006C210.134 123.328 209.974 122.553 209.974 121.682C209.974 120.795 210.137 120.013 210.463 119.335C210.793 118.653 211.251 118.121 211.838 117.739C212.429 117.352 213.118 117.159 213.906 117.159C214.52 117.159 215.073 117.273 215.565 117.5C216.058 117.727 216.461 118.045 216.776 118.455C217.09 118.864 217.285 119.341 217.361 119.886H216.02C215.918 119.489 215.69 119.136 215.338 118.83C214.99 118.519 214.52 118.364 213.929 118.364C213.406 118.364 212.948 118.5 212.554 118.773C212.164 119.042 211.859 119.422 211.639 119.915C211.423 120.403 211.315 120.977 211.315 121.636C211.315 122.311 211.421 122.898 211.634 123.398C211.849 123.898 212.152 124.286 212.543 124.562C212.937 124.839 213.399 124.977 213.929 124.977C214.277 124.977 214.594 124.917 214.878 124.795C215.162 124.674 215.402 124.5 215.599 124.273C215.796 124.045 215.937 123.773 216.02 123.455H217.361C217.285 123.97 217.098 124.434 216.798 124.847C216.503 125.256 216.111 125.581 215.622 125.824C215.137 126.062 214.573 126.182 213.929 126.182ZM222.67 126.182C221.883 126.182 221.191 125.994 220.597 125.619C220.006 125.244 219.544 124.72 219.21 124.045C218.881 123.371 218.716 122.583 218.716 121.682C218.716 120.773 218.881 119.979 219.21 119.301C219.544 118.623 220.006 118.097 220.597 117.722C221.191 117.347 221.883 117.159 222.67 117.159C223.458 117.159 224.148 117.347 224.739 117.722C225.333 118.097 225.795 118.623 226.125 119.301C226.458 119.979 226.625 120.773 226.625 121.682C226.625 122.583 226.458 123.371 226.125 124.045C225.795 124.72 225.333 125.244 224.739 125.619C224.148 125.994 223.458 126.182 222.67 126.182ZM222.67 124.977C223.269 124.977 223.761 124.824 224.148 124.517C224.534 124.21 224.82 123.807 225.006 123.307C225.191 122.807 225.284 122.265 225.284 121.682C225.284 121.098 225.191 120.555 225.006 120.051C224.82 119.547 224.534 119.14 224.148 118.83C223.761 118.519 223.269 118.364 222.67 118.364C222.072 118.364 221.58 118.519 221.193 118.83C220.807 119.14 220.521 119.547 220.335 120.051C220.15 120.555 220.057 121.098 220.057 121.682C220.057 122.265 220.15 122.807 220.335 123.307C220.521 123.807 220.807 124.21 221.193 124.517C221.58 124.824 222.072 124.977 222.67 124.977ZM228.476 126V117.273H229.771V118.636H229.885C230.067 118.17 230.36 117.809 230.766 117.551C231.171 117.29 231.658 117.159 232.226 117.159C232.802 117.159 233.281 117.29 233.663 117.551C234.05 117.809 234.351 118.17 234.567 118.636H234.658C234.881 118.186 235.216 117.828 235.663 117.562C236.11 117.294 236.646 117.159 237.271 117.159C238.052 117.159 238.69 117.403 239.186 117.892C239.682 118.377 239.93 119.133 239.93 120.159V126H238.59V120.159C238.59 119.515 238.413 119.055 238.061 118.778C237.709 118.502 237.294 118.364 236.817 118.364C236.203 118.364 235.728 118.549 235.391 118.92C235.054 119.288 234.885 119.754 234.885 120.318V126H233.521V120.023C233.521 119.527 233.36 119.127 233.038 118.824C232.716 118.517 232.302 118.364 231.794 118.364C231.446 118.364 231.12 118.456 230.817 118.642C230.518 118.828 230.275 119.085 230.09 119.415C229.908 119.741 229.817 120.117 229.817 120.545V126H228.476ZM250.286 117.273V118.409H245.763V117.273H250.286ZM247.081 115.182H248.422V123.5C248.422 123.879 248.477 124.163 248.587 124.352C248.7 124.538 248.844 124.663 249.019 124.727C249.197 124.788 249.384 124.818 249.581 124.818C249.729 124.818 249.85 124.811 249.945 124.795C250.039 124.777 250.115 124.761 250.172 124.75L250.445 125.955C250.354 125.989 250.227 126.023 250.064 126.057C249.901 126.095 249.695 126.114 249.445 126.114C249.066 126.114 248.695 126.032 248.331 125.869C247.971 125.706 247.672 125.458 247.433 125.125C247.198 124.792 247.081 124.371 247.081 123.864V115.182ZM255.558 126.182C254.77 126.182 254.079 125.994 253.484 125.619C252.894 125.244 252.431 124.72 252.098 124.045C251.769 123.371 251.604 122.583 251.604 121.682C251.604 120.773 251.769 119.979 252.098 119.301C252.431 118.623 252.894 118.097 253.484 117.722C254.079 117.347 254.77 117.159 255.558 117.159C256.346 117.159 257.036 117.347 257.627 117.722C258.221 118.097 258.683 118.623 259.013 119.301C259.346 119.979 259.513 120.773 259.513 121.682C259.513 122.583 259.346 123.371 259.013 124.045C258.683 124.72 258.221 125.244 257.627 125.619C257.036 125.994 256.346 126.182 255.558 126.182ZM255.558 124.977C256.157 124.977 256.649 124.824 257.036 124.517C257.422 124.21 257.708 123.807 257.894 123.307C258.079 122.807 258.172 122.265 258.172 121.682C258.172 121.098 258.079 120.555 257.894 120.051C257.708 119.547 257.422 119.14 257.036 118.83C256.649 118.519 256.157 118.364 255.558 118.364C254.96 118.364 254.467 118.519 254.081 118.83C253.695 119.14 253.409 119.547 253.223 120.051C253.038 120.555 252.945 121.098 252.945 121.682C252.945 122.265 253.038 122.807 253.223 123.307C253.409 123.807 253.695 124.21 254.081 124.517C254.467 124.824 254.96 124.977 255.558 124.977ZM269.327 126.182C268.486 126.182 267.761 125.996 267.151 125.625C266.545 125.25 266.077 124.727 265.747 124.057C265.422 123.383 265.259 122.598 265.259 121.705C265.259 120.811 265.422 120.023 265.747 119.341C266.077 118.655 266.535 118.121 267.122 117.739C267.713 117.352 268.403 117.159 269.19 117.159C269.645 117.159 270.094 117.235 270.537 117.386C270.98 117.538 271.384 117.784 271.747 118.125C272.111 118.462 272.401 118.909 272.617 119.466C272.833 120.023 272.94 120.708 272.94 121.523V122.091H266.213V120.932H271.577C271.577 120.439 271.478 120 271.281 119.614C271.088 119.227 270.812 118.922 270.452 118.699C270.096 118.475 269.675 118.364 269.19 118.364C268.656 118.364 268.194 118.496 267.804 118.761C267.418 119.023 267.12 119.364 266.912 119.784C266.704 120.205 266.6 120.655 266.6 121.136V121.909C266.6 122.568 266.713 123.127 266.94 123.585C267.172 124.04 267.492 124.386 267.901 124.625C268.31 124.86 268.785 124.977 269.327 124.977C269.679 124.977 269.997 124.928 270.281 124.83C270.569 124.727 270.817 124.576 271.026 124.375C271.234 124.17 271.395 123.917 271.509 123.614L272.804 123.977C272.668 124.417 272.439 124.803 272.117 125.136C271.795 125.466 271.397 125.723 270.923 125.909C270.45 126.091 269.918 126.182 269.327 126.182ZM276.125 120.75V126H274.784V117.273H276.08V118.636H276.193C276.398 118.193 276.709 117.837 277.125 117.568C277.542 117.295 278.08 117.159 278.739 117.159C279.33 117.159 279.847 117.28 280.29 117.523C280.733 117.761 281.078 118.125 281.324 118.614C281.57 119.098 281.693 119.712 281.693 120.455V126H280.352V120.545C280.352 119.86 280.174 119.326 279.818 118.943C279.462 118.557 278.974 118.364 278.352 118.364C277.924 118.364 277.542 118.456 277.205 118.642C276.871 118.828 276.608 119.098 276.415 119.455C276.222 119.811 276.125 120.242 276.125 120.75ZM287.743 117.273V118.409H283.22V117.273H287.743ZM284.539 115.182H285.879V123.5C285.879 123.879 285.934 124.163 286.044 124.352C286.158 124.538 286.302 124.663 286.476 124.727C286.654 124.788 286.842 124.818 287.039 124.818C287.186 124.818 287.307 124.811 287.402 124.795C287.497 124.777 287.573 124.761 287.629 124.75L287.902 125.955C287.811 125.989 287.684 126.023 287.522 126.057C287.359 126.095 287.152 126.114 286.902 126.114C286.523 126.114 286.152 126.032 285.789 125.869C285.429 125.706 285.129 125.458 284.891 125.125C284.656 124.792 284.539 124.371 284.539 123.864V115.182ZM293.129 126.182C292.289 126.182 291.563 125.996 290.953 125.625C290.347 125.25 289.879 124.727 289.55 124.057C289.224 123.383 289.061 122.598 289.061 121.705C289.061 120.811 289.224 120.023 289.55 119.341C289.879 118.655 290.338 118.121 290.925 117.739C291.516 117.352 292.205 117.159 292.993 117.159C293.448 117.159 293.897 117.235 294.34 117.386C294.783 117.538 295.186 117.784 295.55 118.125C295.914 118.462 296.203 118.909 296.419 119.466C296.635 120.023 296.743 120.708 296.743 121.523V122.091H290.016V120.932H295.379C295.379 120.439 295.281 120 295.084 119.614C294.891 119.227 294.614 118.922 294.254 118.699C293.898 118.475 293.478 118.364 292.993 118.364C292.459 118.364 291.997 118.496 291.607 118.761C291.22 119.023 290.923 119.364 290.715 119.784C290.506 120.205 290.402 120.655 290.402 121.136V121.909C290.402 122.568 290.516 123.127 290.743 123.585C290.974 124.04 291.294 124.386 291.703 124.625C292.112 124.86 292.588 124.977 293.129 124.977C293.482 124.977 293.8 124.928 294.084 124.83C294.372 124.727 294.62 124.576 294.828 124.375C295.037 124.17 295.198 123.917 295.311 123.614L296.607 123.977C296.47 124.417 296.241 124.803 295.919 125.136C295.597 125.466 295.2 125.723 294.726 125.909C294.253 126.091 293.72 126.182 293.129 126.182ZM298.587 126V117.273H299.882V118.591H299.973C300.132 118.159 300.42 117.809 300.837 117.54C301.254 117.271 301.723 117.136 302.246 117.136C302.344 117.136 302.468 117.138 302.615 117.142C302.763 117.146 302.875 117.152 302.951 117.159V118.523C302.905 118.511 302.801 118.494 302.638 118.472C302.479 118.445 302.31 118.432 302.132 118.432C301.708 118.432 301.329 118.521 300.996 118.699C300.666 118.873 300.405 119.116 300.212 119.426C300.022 119.733 299.928 120.083 299.928 120.477V126H298.587ZM312.443 117.273V118.409H307.921V117.273H312.443ZM309.239 115.182H310.58V123.5C310.58 123.879 310.635 124.163 310.745 124.352C310.858 124.538 311.002 124.663 311.176 124.727C311.354 124.788 311.542 124.818 311.739 124.818C311.887 124.818 312.008 124.811 312.103 124.795C312.197 124.777 312.273 124.761 312.33 124.75L312.603 125.955C312.512 125.989 312.385 126.023 312.222 126.057C312.059 126.095 311.853 126.114 311.603 126.114C311.224 126.114 310.853 126.032 310.489 125.869C310.129 125.706 309.83 125.458 309.591 125.125C309.356 124.792 309.239 124.371 309.239 123.864V115.182ZM315.793 120.75V126H314.452V114.364H315.793V118.636H315.907C316.111 118.186 316.418 117.828 316.827 117.562C317.24 117.294 317.789 117.159 318.475 117.159C319.069 117.159 319.59 117.278 320.037 117.517C320.484 117.752 320.831 118.114 321.077 118.602C321.327 119.087 321.452 119.705 321.452 120.455V126H320.111V120.545C320.111 119.852 319.931 119.316 319.571 118.938C319.215 118.555 318.721 118.364 318.088 118.364C317.649 118.364 317.255 118.456 316.907 118.642C316.562 118.828 316.289 119.098 316.088 119.455C315.891 119.811 315.793 120.242 315.793 120.75ZM323.709 126V117.273H325.05V126H323.709ZM324.391 115.818C324.13 115.818 323.904 115.729 323.715 115.551C323.529 115.373 323.436 115.159 323.436 114.909C323.436 114.659 323.529 114.445 323.715 114.267C323.904 114.089 324.13 114 324.391 114C324.652 114 324.876 114.089 325.061 114.267C325.251 114.445 325.346 114.659 325.346 114.909C325.346 115.159 325.251 115.373 325.061 115.551C324.876 115.729 324.652 115.818 324.391 115.818ZM333.492 119.227L332.287 119.568C332.212 119.367 332.1 119.172 331.952 118.983C331.808 118.79 331.611 118.631 331.361 118.506C331.111 118.381 330.791 118.318 330.401 118.318C329.867 118.318 329.422 118.441 329.066 118.688C328.713 118.93 328.537 119.239 328.537 119.614C328.537 119.947 328.658 120.21 328.901 120.403C329.143 120.597 329.522 120.758 330.037 120.886L331.333 121.205C332.113 121.394 332.694 121.684 333.077 122.074C333.46 122.46 333.651 122.958 333.651 123.568C333.651 124.068 333.507 124.515 333.219 124.909C332.935 125.303 332.537 125.614 332.026 125.841C331.515 126.068 330.92 126.182 330.242 126.182C329.352 126.182 328.615 125.989 328.032 125.602C327.448 125.216 327.079 124.652 326.924 123.909L328.196 123.591C328.318 124.061 328.547 124.413 328.884 124.648C329.225 124.883 329.67 125 330.219 125C330.844 125 331.34 124.867 331.708 124.602C332.079 124.333 332.265 124.011 332.265 123.636C332.265 123.333 332.158 123.08 331.946 122.875C331.734 122.667 331.408 122.511 330.969 122.409L329.515 122.068C328.715 121.879 328.128 121.585 327.753 121.188C327.382 120.786 327.196 120.284 327.196 119.682C327.196 119.189 327.335 118.754 327.611 118.375C327.891 117.996 328.272 117.699 328.753 117.483C329.238 117.267 329.787 117.159 330.401 117.159C331.265 117.159 331.943 117.348 332.435 117.727C332.931 118.106 333.283 118.606 333.492 119.227ZM349.777 120.182C349.777 121.409 349.556 122.47 349.113 123.364C348.669 124.258 348.061 124.947 347.289 125.432C346.516 125.917 345.633 126.159 344.641 126.159C343.649 126.159 342.766 125.917 341.993 125.432C341.221 124.947 340.613 124.258 340.169 123.364C339.726 122.47 339.505 121.409 339.505 120.182C339.505 118.955 339.726 117.894 340.169 117C340.613 116.106 341.221 115.417 341.993 114.932C342.766 114.447 343.649 114.205 344.641 114.205C345.633 114.205 346.516 114.447 347.289 114.932C348.061 115.417 348.669 116.106 349.113 117C349.556 117.894 349.777 118.955 349.777 120.182ZM348.414 120.182C348.414 119.174 348.245 118.324 347.908 117.631C347.575 116.938 347.122 116.413 346.55 116.057C345.982 115.701 345.346 115.523 344.641 115.523C343.936 115.523 343.298 115.701 342.726 116.057C342.158 116.413 341.705 116.938 341.368 117.631C341.035 118.324 340.868 119.174 340.868 120.182C340.868 121.189 341.035 122.04 341.368 122.733C341.705 123.426 342.158 123.951 342.726 124.307C343.298 124.663 343.936 124.841 344.641 124.841C345.346 124.841 345.982 124.663 346.55 124.307C347.122 123.951 347.575 123.426 347.908 122.733C348.245 122.04 348.414 121.189 348.414 120.182ZM350.83 115.614V114.364H359.557V115.614H355.898V126H354.489V115.614H350.83ZM361.536 126V114.364H365.468C366.381 114.364 367.127 114.528 367.706 114.858C368.29 115.184 368.722 115.625 369.002 116.182C369.282 116.739 369.422 117.36 369.422 118.045C369.422 118.731 369.282 119.354 369.002 119.915C368.725 120.475 368.297 120.922 367.718 121.256C367.138 121.585 366.396 121.75 365.49 121.75H362.672V120.5H365.445C366.07 120.5 366.572 120.392 366.951 120.176C367.33 119.96 367.604 119.669 367.775 119.301C367.949 118.93 368.036 118.511 368.036 118.045C368.036 117.58 367.949 117.163 367.775 116.795C367.604 116.428 367.328 116.14 366.945 115.932C366.562 115.72 366.055 115.614 365.422 115.614H362.945V126H361.536ZM373.087 114.364L372.973 122.727H371.655L371.542 114.364H373.087ZM372.314 126.091C372.034 126.091 371.794 125.991 371.593 125.79C371.392 125.589 371.292 125.348 371.292 125.068C371.292 124.788 371.392 124.547 371.593 124.347C371.794 124.146 372.034 124.045 372.314 124.045C372.595 124.045 372.835 124.146 373.036 124.347C373.237 124.547 373.337 124.788 373.337 125.068C373.337 125.254 373.29 125.424 373.195 125.58C373.104 125.735 372.981 125.86 372.826 125.955C372.674 126.045 372.504 126.091 372.314 126.091Z" fill="white"/>
<rect x="68" y="210" width="290" height="33" rx="15" fill="#FF5D00"/>
<path d="M188.898 235V232.25H192.523C193.665 232.25 194.519 231.942 195.086 231.325C195.661 230.7 195.948 229.808 195.948 228.65V225.337C195.948 224.179 195.661 223.292 195.086 222.675C194.519 222.058 193.665 221.75 192.523 221.75H188.886V219.025H192.636C194.836 219.025 196.49 219.567 197.598 220.65C198.706 221.733 199.261 223.292 199.261 225.325V228.662C199.261 230.704 198.706 232.271 197.598 233.362C196.498 234.454 194.844 235 192.636 235H188.898ZM186.611 235V219.025H189.848V235H186.611ZM206.835 235.338C204.935 235.338 203.494 234.85 202.51 233.875C201.535 232.9 201.048 231.512 201.048 229.712V228.05C201.048 226.242 201.535 224.85 202.51 223.875C203.494 222.892 204.935 222.4 206.835 222.4C208.727 222.4 210.16 222.892 211.135 223.875C212.11 224.85 212.598 226.242 212.598 228.05V229.712C212.598 231.512 212.11 232.9 211.135 233.875C210.169 234.85 208.735 235.338 206.835 235.338ZM206.835 232.775C207.669 232.775 208.302 232.525 208.735 232.025C209.177 231.525 209.398 230.808 209.398 229.875V227.887C209.398 226.937 209.177 226.212 208.735 225.712C208.302 225.204 207.669 224.95 206.835 224.95C205.994 224.95 205.352 225.204 204.91 225.712C204.477 226.212 204.26 226.937 204.26 227.887V229.875C204.26 230.808 204.477 231.525 204.91 232.025C205.352 232.525 205.994 232.775 206.835 232.775ZM222.729 235V227.637C222.729 227.121 222.659 226.675 222.517 226.3C222.384 225.925 222.159 225.633 221.842 225.425C221.525 225.217 221.092 225.112 220.542 225.112C220.059 225.112 219.634 225.2 219.267 225.375C218.909 225.55 218.613 225.787 218.379 226.087C218.154 226.379 217.984 226.712 217.867 227.087L217.367 225.337H217.967C218.1 224.796 218.321 224.308 218.629 223.875C218.946 223.442 219.371 223.1 219.904 222.85C220.446 222.592 221.121 222.462 221.929 222.462C222.871 222.462 223.634 222.642 224.217 223C224.8 223.35 225.229 223.875 225.504 224.575C225.788 225.275 225.929 226.142 225.929 227.175V235H222.729ZM214.742 235V222.737H217.942L217.817 225.725L217.942 225.987V235H214.742ZM234.176 235.3C232.076 235.3 230.513 234.817 229.488 233.85C228.463 232.883 227.951 231.483 227.951 229.65V228.05C227.951 226.233 228.43 224.837 229.388 223.862C230.346 222.887 231.738 222.4 233.563 222.4C234.796 222.4 235.826 222.617 236.651 223.05C237.476 223.483 238.092 224.1 238.501 224.9C238.917 225.692 239.126 226.642 239.126 227.75V228.187C239.126 228.487 239.109 228.796 239.076 229.112C239.051 229.421 239.013 229.712 238.963 229.987H236.063C236.088 229.529 236.101 229.096 236.101 228.688C236.109 228.271 236.113 227.896 236.113 227.562C236.113 226.987 236.021 226.5 235.838 226.1C235.655 225.692 235.376 225.383 235.001 225.175C234.626 224.967 234.146 224.862 233.563 224.862C232.705 224.862 232.071 225.1 231.663 225.575C231.255 226.05 231.051 226.725 231.051 227.6V228.737L231.063 229.1V230.062C231.063 230.446 231.121 230.8 231.238 231.125C231.363 231.45 231.567 231.733 231.851 231.975C232.134 232.208 232.509 232.392 232.976 232.525C233.451 232.658 234.042 232.725 234.751 232.725C235.517 232.725 236.246 232.642 236.938 232.475C237.638 232.3 238.301 232.067 238.926 231.775L238.651 234.3C238.092 234.608 237.434 234.85 236.676 235.025C235.926 235.208 235.092 235.3 234.176 235.3ZM229.651 229.987V227.862H238.313V229.987H229.651Z" fill="white"/>
<path d="M147.393 154.545V172H143.703V158.048H143.6L139.603 160.554V157.281L143.924 154.545H147.393ZM162.753 172L169.989 157.682V157.562H161.56V154.545H173.807V157.605L166.563 172H162.753ZM193.701 172.384C192.235 172.378 190.974 172.017 189.917 171.301C188.866 170.585 188.056 169.548 187.488 168.19C186.926 166.832 186.647 165.199 186.653 163.29C186.653 161.386 186.934 159.764 187.497 158.423C188.065 157.082 188.875 156.062 189.926 155.364C190.983 154.659 192.241 154.307 193.701 154.307C195.162 154.307 196.417 154.659 197.468 155.364C198.525 156.068 199.338 157.091 199.906 158.432C200.474 159.767 200.755 161.386 200.75 163.29C200.75 165.205 200.466 166.841 199.897 168.199C199.335 169.557 198.528 170.594 197.477 171.31C196.426 172.026 195.167 172.384 193.701 172.384ZM193.701 169.324C194.701 169.324 195.5 168.821 196.096 167.815C196.693 166.81 196.988 165.301 196.983 163.29C196.983 161.966 196.846 160.864 196.573 159.983C196.306 159.102 195.926 158.44 195.431 157.997C194.943 157.554 194.366 157.332 193.701 157.332C192.707 157.332 191.912 157.83 191.315 158.824C190.718 159.818 190.417 161.307 190.412 163.29C190.412 164.631 190.545 165.75 190.812 166.648C191.085 167.54 191.468 168.21 191.963 168.659C192.457 169.102 193.037 169.324 193.701 169.324ZM220.414 172.239C219.101 172.239 217.934 172.026 216.911 171.599C215.894 171.168 215.096 170.58 214.516 169.835C213.936 169.091 213.647 168.247 213.647 167.304C213.647 166.577 213.811 165.909 214.141 165.301C214.476 164.688 214.931 164.179 215.505 163.776C216.079 163.366 216.721 163.105 217.431 162.991V162.872C216.499 162.685 215.743 162.233 215.164 161.517C214.584 160.795 214.294 159.957 214.294 159.003C214.294 158.099 214.559 157.295 215.087 156.591C215.615 155.881 216.34 155.324 217.26 154.92C218.186 154.511 219.238 154.307 220.414 154.307C221.59 154.307 222.638 154.511 223.559 154.92C224.485 155.33 225.212 155.889 225.74 156.599C226.269 157.304 226.536 158.105 226.542 159.003C226.536 159.963 226.24 160.801 225.655 161.517C225.07 162.233 224.32 162.685 223.405 162.872V162.991C224.104 163.105 224.738 163.366 225.306 163.776C225.88 164.179 226.334 164.688 226.669 165.301C227.01 165.909 227.184 166.577 227.189 167.304C227.184 168.247 226.891 169.091 226.311 169.835C225.732 170.58 224.931 171.168 223.908 171.599C222.891 172.026 221.726 172.239 220.414 172.239ZM220.414 169.528C220.999 169.528 221.51 169.423 221.948 169.213C222.385 168.997 222.726 168.702 222.971 168.327C223.221 167.946 223.346 167.509 223.346 167.014C223.346 166.509 223.218 166.062 222.962 165.676C222.706 165.284 222.36 164.977 221.922 164.756C221.485 164.528 220.982 164.415 220.414 164.415C219.851 164.415 219.348 164.528 218.905 164.756C218.462 164.977 218.113 165.284 217.857 165.676C217.607 166.062 217.482 166.509 217.482 167.014C217.482 167.509 217.604 167.946 217.848 168.327C218.093 168.702 218.436 168.997 218.88 169.213C219.323 169.423 219.834 169.528 220.414 169.528ZM220.414 161.73C220.902 161.73 221.337 161.631 221.718 161.432C222.098 161.233 222.397 160.957 222.613 160.605C222.829 160.253 222.936 159.847 222.936 159.386C222.936 158.932 222.829 158.534 222.613 158.193C222.397 157.847 222.101 157.577 221.726 157.384C221.351 157.185 220.914 157.085 220.414 157.085C219.919 157.085 219.482 157.185 219.101 157.384C218.721 157.577 218.422 157.847 218.206 158.193C217.996 158.534 217.891 158.932 217.891 159.386C217.891 159.847 217.999 160.253 218.215 160.605C218.431 160.957 218.729 161.233 219.11 161.432C219.49 161.631 219.925 161.73 220.414 161.73ZM240.027 168.932V166.026L247.314 154.545H249.819V158.568H248.336L243.743 165.838V165.974H254.098V168.932H240.027ZM248.405 172V168.045L248.473 166.759V154.545H251.933V172H248.405ZM273.453 172.239C272.248 172.239 271.175 172.017 270.231 171.574C269.294 171.131 268.55 170.52 267.998 169.741C267.447 168.963 267.16 168.071 267.138 167.065H270.717C270.757 167.741 271.041 168.29 271.569 168.71C272.098 169.131 272.726 169.341 273.453 169.341C274.032 169.341 274.544 169.213 274.987 168.957C275.436 168.696 275.785 168.335 276.035 167.875C276.291 167.409 276.419 166.875 276.419 166.273C276.419 165.659 276.288 165.119 276.027 164.653C275.771 164.187 275.416 163.824 274.961 163.562C274.507 163.301 273.987 163.168 273.402 163.162C272.89 163.162 272.393 163.267 271.91 163.477C271.433 163.687 271.061 163.974 270.794 164.338L267.513 163.75L268.339 154.545H279.01V157.562H271.382L270.93 161.935H271.032C271.339 161.503 271.802 161.145 272.422 160.861C273.041 160.577 273.734 160.435 274.501 160.435C275.552 160.435 276.49 160.682 277.314 161.176C278.138 161.67 278.788 162.349 279.265 163.213C279.743 164.071 279.978 165.06 279.973 166.179C279.978 167.355 279.706 168.401 279.155 169.315C278.609 170.224 277.845 170.94 276.862 171.463C275.885 171.98 274.748 172.239 273.453 172.239ZM285.436 154.545L285.265 167.091H283.288L283.118 154.545H285.436ZM284.277 172.136C283.856 172.136 283.496 171.986 283.194 171.685C282.893 171.384 282.743 171.023 282.743 170.602C282.743 170.182 282.893 169.821 283.194 169.52C283.496 169.219 283.856 169.068 284.277 169.068C284.697 169.068 285.058 169.219 285.359 169.52C285.66 169.821 285.811 170.182 285.811 170.602C285.811 170.881 285.74 171.136 285.598 171.369C285.461 171.602 285.277 171.79 285.044 171.932C284.817 172.068 284.561 172.136 284.277 172.136Z" fill="white"/>
<defs>
<filter id="filter0_d_944_1806" x="0" y="0" width="428" height="280" filterUnits="userSpaceOnUse" color-interpolation-filters="sRGB">
<feFlood flood-opacity="0" result="BackgroundImageFix"/>
<feColorMatrix in="SourceAlpha" type="matrix" values="0 0 0 0 0 0 0 0 0 0 0 0 0 0 0 0 0 0 127 0" result="hardAlpha"/>
<feOffset dx="1" dy="1"/>
<feGaussianBlur stdDeviation="5"/>
<feComposite in2="hardAlpha" operator="out"/>
<feColorMatrix type="matrix" values="0 0 0 0 1 0 0 0 0 1 0 0 0 0 1 0 0 0 1 0"/>
<feBlend mode="normal" in2="BackgroundImageFix" result="effect1_dropShadow_944_1806"/>
<feBlend mode="normal" in="SourceGraphic" in2="effect1_dropShadow_944_1806" result="shape"/>
</filter>
</defs>
</svg>
