<svg width="588" height="401" viewBox="0 0 588 401" fill="none" xmlns="http://www.w3.org/2000/svg">
<g filter="url(#filter0_d_944_1810)">
<path d="M90 101C90 92.7157 96.7157 86 105 86H483C491.284 86 498 92.7157 498 101V292C498 300.284 491.284 307 483 307H105C96.7157 307 90 300.284 90 292V101Z" fill="white"/>
</g>
<path d="M192.245 137.196V134.545H206.171V137.196H200.776V152H197.64V137.196H192.245ZM207.164 152V138.909H210.155V141.091H210.292C210.53 140.335 210.939 139.753 211.519 139.344C212.104 138.929 212.772 138.722 213.522 138.722C213.692 138.722 213.883 138.73 214.093 138.747C214.309 138.759 214.488 138.778 214.63 138.807V141.645C214.499 141.599 214.292 141.56 214.008 141.526C213.729 141.486 213.459 141.466 213.198 141.466C212.636 141.466 212.13 141.588 211.681 141.832C211.238 142.071 210.888 142.403 210.633 142.83C210.377 143.256 210.249 143.747 210.249 144.304V152H207.164ZM220.016 152.264C219.187 152.264 218.44 152.116 217.775 151.821C217.116 151.52 216.593 151.077 216.207 150.491C215.826 149.906 215.636 149.185 215.636 148.327C215.636 147.588 215.772 146.977 216.045 146.494C216.317 146.011 216.69 145.625 217.161 145.335C217.633 145.045 218.164 144.827 218.755 144.679C219.351 144.526 219.968 144.415 220.604 144.347C221.371 144.267 221.993 144.196 222.471 144.134C222.948 144.065 223.295 143.963 223.511 143.827C223.732 143.685 223.843 143.466 223.843 143.17V143.119C223.843 142.477 223.653 141.98 223.272 141.628C222.891 141.276 222.343 141.099 221.627 141.099C220.871 141.099 220.272 141.264 219.829 141.594C219.391 141.923 219.096 142.312 218.942 142.761L216.062 142.352C216.289 141.557 216.664 140.892 217.187 140.358C217.709 139.818 218.349 139.415 219.104 139.148C219.86 138.875 220.695 138.739 221.61 138.739C222.241 138.739 222.868 138.812 223.493 138.96C224.118 139.108 224.69 139.352 225.207 139.693C225.724 140.028 226.138 140.486 226.451 141.065C226.769 141.645 226.928 142.369 226.928 143.239V152H223.962V150.202H223.86C223.672 150.565 223.408 150.906 223.067 151.224C222.732 151.537 222.309 151.79 221.797 151.983C221.292 152.17 220.698 152.264 220.016 152.264ZM220.817 149.997C221.437 149.997 221.974 149.875 222.428 149.631C222.883 149.381 223.232 149.051 223.476 148.642C223.726 148.233 223.851 147.787 223.851 147.304V145.761C223.755 145.841 223.59 145.915 223.357 145.983C223.13 146.051 222.874 146.111 222.59 146.162C222.306 146.213 222.025 146.259 221.746 146.298C221.468 146.338 221.226 146.372 221.022 146.401C220.562 146.463 220.15 146.565 219.786 146.707C219.422 146.849 219.136 147.048 218.925 147.304C218.715 147.554 218.61 147.878 218.61 148.276C218.61 148.844 218.817 149.273 219.232 149.562C219.647 149.852 220.175 149.997 220.817 149.997ZM232.92 144.33V152H229.834V138.909H232.783V141.134H232.937C233.238 140.401 233.718 139.818 234.377 139.386C235.042 138.955 235.863 138.739 236.84 138.739C237.744 138.739 238.53 138.932 239.201 139.318C239.877 139.705 240.4 140.264 240.769 140.997C241.144 141.73 241.329 142.619 241.323 143.665V152H238.238V144.142C238.238 143.267 238.011 142.582 237.556 142.088C237.107 141.594 236.485 141.347 235.69 141.347C235.15 141.347 234.67 141.466 234.249 141.705C233.834 141.937 233.508 142.276 233.269 142.719C233.036 143.162 232.92 143.699 232.92 144.33ZM254.61 142.369L251.798 142.676C251.718 142.392 251.579 142.125 251.38 141.875C251.187 141.625 250.925 141.423 250.596 141.27C250.266 141.116 249.863 141.04 249.386 141.04C248.744 141.04 248.204 141.179 247.766 141.457C247.334 141.736 247.121 142.097 247.127 142.54C247.121 142.92 247.261 143.23 247.545 143.469C247.834 143.707 248.312 143.903 248.976 144.057L251.209 144.534C252.448 144.801 253.369 145.224 253.971 145.804C254.579 146.384 254.886 147.142 254.891 148.08C254.886 148.903 254.644 149.631 254.167 150.261C253.695 150.886 253.039 151.375 252.198 151.727C251.357 152.08 250.391 152.256 249.3 152.256C247.698 152.256 246.408 151.92 245.431 151.25C244.454 150.574 243.871 149.634 243.684 148.429L246.692 148.139C246.829 148.73 247.119 149.176 247.562 149.477C248.005 149.778 248.582 149.929 249.292 149.929C250.025 149.929 250.613 149.778 251.056 149.477C251.505 149.176 251.729 148.804 251.729 148.361C251.729 147.986 251.584 147.676 251.295 147.432C251.011 147.187 250.567 147 249.965 146.869L247.732 146.401C246.476 146.139 245.548 145.699 244.945 145.08C244.343 144.455 244.045 143.665 244.05 142.71C244.045 141.903 244.263 141.205 244.707 140.614C245.155 140.017 245.778 139.557 246.573 139.233C247.374 138.903 248.298 138.739 249.343 138.739C250.877 138.739 252.084 139.065 252.965 139.719C253.851 140.372 254.4 141.256 254.61 142.369ZM263.87 138.909V141.295H256.131V138.909H263.87ZM258.066 152V137.673C258.066 136.793 258.248 136.06 258.611 135.474C258.981 134.889 259.475 134.452 260.094 134.162C260.714 133.872 261.401 133.727 262.157 133.727C262.691 133.727 263.165 133.77 263.58 133.855C263.995 133.94 264.302 134.017 264.501 134.085L263.887 136.472C263.756 136.432 263.592 136.392 263.393 136.352C263.194 136.307 262.972 136.284 262.728 136.284C262.154 136.284 261.748 136.423 261.509 136.702C261.276 136.974 261.16 137.366 261.16 137.878V152H258.066ZM271.393 152.256C270.081 152.256 268.947 151.983 267.993 151.438C267.044 150.886 266.314 150.108 265.803 149.102C265.291 148.091 265.035 146.901 265.035 145.531C265.035 144.185 265.291 143.003 265.803 141.986C266.32 140.963 267.041 140.168 267.967 139.599C268.893 139.026 269.981 138.739 271.231 138.739C272.038 138.739 272.8 138.869 273.516 139.131C274.237 139.386 274.874 139.784 275.425 140.324C275.981 140.864 276.419 141.551 276.737 142.386C277.055 143.216 277.214 144.205 277.214 145.352V146.298H266.484V144.219H274.257C274.251 143.628 274.124 143.102 273.874 142.642C273.624 142.176 273.274 141.81 272.825 141.543C272.382 141.276 271.865 141.142 271.274 141.142C270.643 141.142 270.089 141.295 269.612 141.602C269.135 141.903 268.763 142.301 268.496 142.795C268.234 143.284 268.101 143.821 268.095 144.406V146.222C268.095 146.983 268.234 147.636 268.513 148.182C268.791 148.722 269.18 149.136 269.68 149.426C270.18 149.71 270.766 149.852 271.436 149.852C271.885 149.852 272.291 149.79 272.655 149.665C273.018 149.534 273.334 149.344 273.601 149.094C273.868 148.844 274.07 148.534 274.206 148.165L277.087 148.489C276.905 149.25 276.558 149.915 276.047 150.483C275.541 151.045 274.893 151.483 274.104 151.795C273.314 152.102 272.41 152.256 271.393 152.256ZM279.629 152V138.909H282.62V141.091H282.756C282.995 140.335 283.404 139.753 283.984 139.344C284.569 138.929 285.236 138.722 285.986 138.722C286.157 138.722 286.347 138.73 286.558 138.747C286.773 138.759 286.952 138.778 287.094 138.807V141.645C286.964 141.599 286.756 141.56 286.472 141.526C286.194 141.486 285.924 141.466 285.663 141.466C285.1 141.466 284.594 141.588 284.146 141.832C283.702 142.071 283.353 142.403 283.097 142.83C282.842 143.256 282.714 143.747 282.714 144.304V152H279.629ZM294.842 152V134.545H301.387C302.728 134.545 303.853 134.778 304.762 135.244C305.677 135.71 306.367 136.364 306.833 137.205C307.305 138.04 307.541 139.014 307.541 140.128C307.541 141.247 307.302 142.219 306.825 143.043C306.353 143.861 305.657 144.494 304.737 144.943C303.816 145.386 302.685 145.608 301.344 145.608H296.683V142.983H300.918C301.702 142.983 302.344 142.875 302.844 142.659C303.344 142.437 303.714 142.116 303.952 141.696C304.197 141.27 304.319 140.747 304.319 140.128C304.319 139.509 304.197 138.98 303.952 138.543C303.708 138.099 303.336 137.764 302.836 137.537C302.336 137.304 301.691 137.188 300.901 137.188H298.004V152H294.842ZM303.859 144.091L308.18 152H304.651L300.407 144.091H303.859ZM315.727 152.256C314.414 152.256 313.281 151.983 312.326 151.438C311.377 150.886 310.647 150.108 310.136 149.102C309.624 148.091 309.369 146.901 309.369 145.531C309.369 144.185 309.624 143.003 310.136 141.986C310.653 140.963 311.374 140.168 312.3 139.599C313.227 139.026 314.315 138.739 315.565 138.739C316.372 138.739 317.133 138.869 317.849 139.131C318.57 139.386 319.207 139.784 319.758 140.324C320.315 140.864 320.752 141.551 321.07 142.386C321.389 143.216 321.548 144.205 321.548 145.352V146.298H310.818V144.219H318.59C318.585 143.628 318.457 143.102 318.207 142.642C317.957 142.176 317.607 141.81 317.158 141.543C316.715 141.276 316.198 141.142 315.607 141.142C314.977 141.142 314.423 141.295 313.945 141.602C313.468 141.903 313.096 142.301 312.829 142.795C312.568 143.284 312.434 143.821 312.428 144.406V146.222C312.428 146.983 312.568 147.636 312.846 148.182C313.124 148.722 313.514 149.136 314.014 149.426C314.514 149.71 315.099 149.852 315.769 149.852C316.218 149.852 316.624 149.79 316.988 149.665C317.352 149.534 317.667 149.344 317.934 149.094C318.201 148.844 318.403 148.534 318.539 148.165L321.42 148.489C321.238 149.25 320.891 149.915 320.38 150.483C319.874 151.045 319.227 151.483 318.437 151.795C317.647 152.102 316.744 152.256 315.727 152.256ZM332.698 156.909V149.938H332.57C332.411 150.256 332.18 150.594 331.879 150.952C331.578 151.304 331.18 151.605 330.686 151.855C330.192 152.105 329.57 152.23 328.82 152.23C327.791 152.23 326.871 151.966 326.058 151.438C325.246 150.909 324.604 150.142 324.132 149.136C323.661 148.131 323.425 146.909 323.425 145.472C323.425 144.017 323.663 142.79 324.141 141.79C324.624 140.784 325.274 140.026 326.092 139.514C326.911 138.997 327.823 138.739 328.828 138.739C329.595 138.739 330.226 138.869 330.72 139.131C331.215 139.386 331.607 139.696 331.896 140.06C332.186 140.418 332.411 140.756 332.57 141.074H332.757V138.909H335.791V156.909H332.698ZM329.68 149.699C330.334 149.699 330.891 149.523 331.351 149.17C331.811 148.812 332.161 148.315 332.399 147.679C332.638 147.043 332.757 146.301 332.757 145.455C332.757 144.608 332.638 143.872 332.399 143.247C332.166 142.622 331.82 142.136 331.359 141.79C330.905 141.443 330.345 141.27 329.68 141.27C328.993 141.27 328.419 141.449 327.959 141.807C327.499 142.165 327.152 142.659 326.919 143.29C326.686 143.92 326.57 144.642 326.57 145.455C326.57 146.273 326.686 147.003 326.919 147.645C327.158 148.281 327.507 148.784 327.967 149.153C328.433 149.517 329.004 149.699 329.68 149.699ZM347.109 146.494V138.909H350.195V152H347.203V149.673H347.067C346.771 150.406 346.286 151.006 345.609 151.472C344.939 151.937 344.112 152.17 343.129 152.17C342.271 152.17 341.513 151.98 340.854 151.599C340.2 151.213 339.689 150.653 339.32 149.92C338.95 149.182 338.766 148.29 338.766 147.244V138.909H341.851V146.767C341.851 147.597 342.078 148.256 342.533 148.744C342.987 149.233 343.584 149.477 344.323 149.477C344.777 149.477 345.217 149.366 345.644 149.145C346.07 148.923 346.419 148.594 346.692 148.156C346.97 147.713 347.109 147.159 347.109 146.494ZM358.967 152.256C357.654 152.256 356.521 151.983 355.566 151.438C354.617 150.886 353.887 150.108 353.376 149.102C352.864 148.091 352.609 146.901 352.609 145.531C352.609 144.185 352.864 143.003 353.376 141.986C353.893 140.963 354.614 140.168 355.541 139.599C356.467 139.026 357.555 138.739 358.805 138.739C359.612 138.739 360.373 138.869 361.089 139.131C361.81 139.386 362.447 139.784 362.998 140.324C363.555 140.864 363.992 141.551 364.31 142.386C364.629 143.216 364.788 144.205 364.788 145.352V146.298H354.058V144.219H361.83C361.825 143.628 361.697 143.102 361.447 142.642C361.197 142.176 360.847 141.81 360.399 141.543C359.955 141.276 359.438 141.142 358.847 141.142C358.217 141.142 357.663 141.295 357.185 141.602C356.708 141.903 356.336 142.301 356.069 142.795C355.808 143.284 355.674 143.821 355.668 144.406V146.222C355.668 146.983 355.808 147.636 356.086 148.182C356.364 148.722 356.754 149.136 357.254 149.426C357.754 149.71 358.339 149.852 359.009 149.852C359.458 149.852 359.864 149.79 360.228 149.665C360.592 149.534 360.907 149.344 361.174 149.094C361.441 148.844 361.643 148.534 361.779 148.165L364.66 148.489C364.478 149.25 364.132 149.915 363.62 150.483C363.114 151.045 362.467 151.483 361.677 151.795C360.887 152.102 359.984 152.256 358.967 152.256ZM377.548 142.369L374.736 142.676C374.656 142.392 374.517 142.125 374.318 141.875C374.125 141.625 373.864 141.423 373.534 141.27C373.205 141.116 372.801 141.04 372.324 141.04C371.682 141.04 371.142 141.179 370.705 141.457C370.273 141.736 370.06 142.097 370.065 142.54C370.06 142.92 370.199 143.23 370.483 143.469C370.773 143.707 371.25 143.903 371.915 144.057L374.148 144.534C375.387 144.801 376.307 145.224 376.909 145.804C377.517 146.384 377.824 147.142 377.83 148.08C377.824 148.903 377.583 149.631 377.105 150.261C376.634 150.886 375.977 151.375 375.137 151.727C374.296 152.08 373.33 152.256 372.239 152.256C370.637 152.256 369.347 151.92 368.369 151.25C367.392 150.574 366.81 149.634 366.622 148.429L369.631 148.139C369.767 148.73 370.057 149.176 370.5 149.477C370.943 149.778 371.52 149.929 372.23 149.929C372.963 149.929 373.551 149.778 373.994 149.477C374.443 149.176 374.668 148.804 374.668 148.361C374.668 147.986 374.523 147.676 374.233 147.432C373.949 147.187 373.506 147 372.904 146.869L370.671 146.401C369.415 146.139 368.486 145.699 367.884 145.08C367.281 144.455 366.983 143.665 366.989 142.71C366.983 141.903 367.202 141.205 367.645 140.614C368.094 140.017 368.716 139.557 369.512 139.233C370.313 138.903 371.236 138.739 372.281 138.739C373.815 138.739 375.023 139.065 375.904 139.719C376.79 140.372 377.338 141.256 377.548 142.369ZM386.715 138.909V141.295H379.189V138.909H386.715ZM381.047 135.773H384.132V148.062C384.132 148.477 384.195 148.795 384.32 149.017C384.45 149.233 384.621 149.381 384.831 149.46C385.041 149.54 385.274 149.58 385.53 149.58C385.723 149.58 385.899 149.565 386.058 149.537C386.223 149.509 386.348 149.483 386.433 149.46L386.953 151.872C386.789 151.929 386.553 151.991 386.246 152.06C385.945 152.128 385.575 152.168 385.138 152.179C384.365 152.202 383.669 152.085 383.05 151.83C382.431 151.568 381.939 151.165 381.575 150.619C381.217 150.074 381.041 149.392 381.047 148.574V135.773Z" fill="black"/>
<rect x="160" y="219" width="268" height="45" rx="15" fill="#E6EEF4"/>
<path d="M274.775 201.363C272.567 201.363 270.896 200.787 269.763 199.637C268.638 198.479 268.075 196.825 268.075 194.675V191.425C268.075 189.267 268.638 187.604 269.763 186.437C270.896 185.271 272.567 184.687 274.775 184.687C276.983 184.687 278.65 185.271 279.775 186.437C280.908 187.604 281.475 189.267 281.475 191.425V194.675C281.475 196.825 280.913 198.479 279.788 199.637C278.663 200.787 276.992 201.363 274.775 201.363ZM274.775 198.637C275.9 198.637 276.742 198.304 277.3 197.637C277.858 196.971 278.138 196.033 278.138 194.825V191.275C278.138 190.025 277.858 189.067 277.3 188.4C276.742 187.725 275.9 187.387 274.775 187.387C273.658 187.387 272.821 187.725 272.263 188.4C271.704 189.067 271.425 190.025 271.425 191.275V194.825C271.425 196.033 271.704 196.971 272.263 197.637C272.821 198.304 273.658 198.637 274.775 198.637ZM286.995 201V185.637H290.283V201H286.995ZM282.445 187.762V185.025H294.808V187.762H282.445ZM299.094 196.2V193.525H303.169C304.069 193.525 304.719 193.317 305.119 192.9C305.527 192.475 305.731 191.862 305.731 191.062V190.15C305.731 189.333 305.531 188.721 305.131 188.312C304.731 187.896 304.081 187.687 303.181 187.687H299.094V185.025H303.369C305.311 185.025 306.731 185.462 307.631 186.337C308.54 187.212 308.994 188.454 308.994 190.062V191.162C308.994 192.771 308.54 194.012 307.631 194.887C306.731 195.762 305.311 196.2 303.369 196.2H299.094ZM296.906 201V185.025H300.131V194.287L300.144 195.775V201H296.906ZM317.406 201.3C316.789 201.3 316.335 201.137 316.043 200.812C315.752 200.487 315.606 200.037 315.606 199.462V199.337C315.606 198.754 315.752 198.3 316.043 197.975C316.335 197.65 316.789 197.487 317.406 197.487C318.014 197.487 318.464 197.65 318.756 197.975C319.056 198.3 319.206 198.754 319.206 199.337V199.462C319.206 200.037 319.056 200.487 318.756 200.812C318.464 201.137 318.014 201.3 317.406 201.3ZM317.406 193.1C316.789 193.1 316.335 192.937 316.043 192.612C315.752 192.287 315.606 191.833 315.606 191.25V191.125C315.606 190.55 315.752 190.1 316.043 189.775C316.335 189.45 316.789 189.287 317.406 189.287C318.014 189.287 318.464 189.45 318.756 189.775C319.056 190.1 319.206 190.55 319.206 191.125V191.25C319.206 191.833 319.056 192.287 318.756 192.612C318.464 192.937 318.014 193.1 317.406 193.1Z" fill="#001D3D"/>
<defs>
<filter id="filter0_d_944_1810" x="0" y="0" width="588" height="401" filterUnits="userSpaceOnUse" color-interpolation-filters="sRGB">
<feFlood flood-opacity="0" result="BackgroundImageFix"/>
<feColorMatrix in="SourceAlpha" type="matrix" values="0 0 0 0 0 0 0 0 0 0 0 0 0 0 0 0 0 0 127 0" result="hardAlpha"/>
<feOffset dy="4"/>
<feGaussianBlur stdDeviation="45"/>
<feComposite in2="hardAlpha" operator="out"/>
<feColorMatrix type="matrix" values="0 0 0 0 0 0 0 0 0 0 0 0 0 0 0 0 0 0 0.25 0"/>
<feBlend mode="normal" in2="BackgroundImageFix" result="effect1_dropShadow_944_1810"/>
<feBlend mode="normal" in="SourceGraphic" in2="effect1_dropShadow_944_1810" result="shape"/>
</filter>
</defs>
</svg>
