<svg width="428" height="280" viewBox="0 0 428 280" fill="none" xmlns="http://www.w3.org/2000/svg">
<g filter="url(#filter0_d_943_1802)">
<rect x="9" y="9" width="408" height="260" rx="15" fill="#001D3D"/>
</g>
<path d="M133.955 54.196V51.5455H147.881V54.196H142.486V69H139.35V54.196H133.955ZM148.874 69V55.9091H151.865V58.0909H152.002C152.24 57.3352 152.649 56.7528 153.229 56.3438C153.814 55.929 154.482 55.7216 155.232 55.7216C155.402 55.7216 155.593 55.7301 155.803 55.7472C156.019 55.7585 156.198 55.7784 156.34 55.8068V58.6449C156.209 58.5994 156.002 58.5597 155.718 58.5256C155.439 58.4858 155.169 58.4659 154.908 58.4659C154.345 58.4659 153.84 58.5881 153.391 58.8324C152.948 59.071 152.598 59.4034 152.343 59.8295C152.087 60.2557 151.959 60.7472 151.959 61.304V69H148.874ZM161.726 69.2642C160.897 69.2642 160.149 69.1165 159.485 68.821C158.826 68.5199 158.303 68.0767 157.916 67.4915C157.536 66.9062 157.345 66.1847 157.345 65.3267C157.345 64.5881 157.482 63.9773 157.755 63.4943C158.027 63.0114 158.399 62.625 158.871 62.3352C159.343 62.0455 159.874 61.8267 160.465 61.679C161.061 61.5256 161.678 61.4148 162.314 61.3466C163.081 61.267 163.703 61.196 164.181 61.1335C164.658 61.0653 165.005 60.9631 165.22 60.8267C165.442 60.6847 165.553 60.4659 165.553 60.1705V60.1193C165.553 59.4773 165.362 58.9801 164.982 58.6278C164.601 58.2756 164.053 58.0994 163.337 58.0994C162.581 58.0994 161.982 58.2642 161.539 58.5938C161.101 58.9233 160.806 59.3125 160.652 59.7614L157.772 59.3523C157.999 58.5568 158.374 57.892 158.897 57.358C159.419 56.8182 160.059 56.4148 160.814 56.1477C161.57 55.875 162.405 55.7386 163.32 55.7386C163.951 55.7386 164.578 55.8125 165.203 55.9602C165.828 56.108 166.399 56.3523 166.916 56.6932C167.434 57.0284 167.848 57.4858 168.161 58.0653C168.479 58.6449 168.638 59.3693 168.638 60.2386V69H165.672V67.2017H165.57C165.382 67.5653 165.118 67.9062 164.777 68.2244C164.442 68.5369 164.019 68.7898 163.507 68.983C163.002 69.1705 162.408 69.2642 161.726 69.2642ZM162.527 66.9972C163.147 66.9972 163.684 66.875 164.138 66.6307C164.593 66.3807 164.942 66.0511 165.186 65.642C165.436 65.233 165.561 64.7869 165.561 64.304V62.7614C165.465 62.8409 165.3 62.9148 165.067 62.983C164.84 63.0511 164.584 63.1108 164.3 63.1619C164.016 63.2131 163.735 63.2585 163.456 63.2983C163.178 63.3381 162.936 63.3722 162.732 63.4006C162.272 63.4631 161.86 63.5653 161.496 63.7074C161.132 63.8494 160.845 64.0483 160.635 64.304C160.425 64.554 160.32 64.8778 160.32 65.2756C160.32 65.8438 160.527 66.2727 160.942 66.5625C161.357 66.8523 161.885 66.9972 162.527 66.9972ZM174.63 61.3295V69H171.544V55.9091H174.493V58.1335H174.647C174.948 57.4006 175.428 56.8182 176.087 56.3864C176.752 55.9545 177.573 55.7386 178.55 55.7386C179.453 55.7386 180.24 55.9318 180.911 56.3182C181.587 56.7045 182.11 57.2642 182.479 57.9972C182.854 58.7301 183.039 59.6193 183.033 60.6648V69H179.948V61.142C179.948 60.267 179.72 59.5824 179.266 59.0881C178.817 58.5937 178.195 58.3466 177.399 58.3466C176.86 58.3466 176.38 58.4659 175.959 58.7045C175.544 58.9375 175.218 59.2756 174.979 59.7188C174.746 60.1619 174.63 60.6989 174.63 61.3295ZM196.32 59.3693L193.507 59.6761C193.428 59.392 193.289 59.125 193.09 58.875C192.897 58.625 192.635 58.4233 192.306 58.2699C191.976 58.1165 191.573 58.0398 191.095 58.0398C190.453 58.0398 189.914 58.179 189.476 58.4574C189.044 58.7358 188.831 59.0966 188.837 59.5398C188.831 59.9205 188.97 60.2301 189.255 60.4688C189.544 60.7074 190.022 60.9034 190.686 61.0568L192.919 61.5341C194.158 61.8011 195.078 62.2244 195.681 62.804C196.289 63.3835 196.595 64.142 196.601 65.0795C196.595 65.9034 196.354 66.6307 195.877 67.2614C195.405 67.8864 194.749 68.375 193.908 68.7273C193.067 69.0795 192.101 69.2557 191.01 69.2557C189.408 69.2557 188.118 68.9205 187.141 68.25C186.164 67.5739 185.581 66.6335 185.394 65.429L188.402 65.1392C188.539 65.7301 188.828 66.1761 189.272 66.4773C189.715 66.7784 190.292 66.929 191.002 66.929C191.735 66.929 192.323 66.7784 192.766 66.4773C193.215 66.1761 193.439 65.804 193.439 65.3608C193.439 64.9858 193.294 64.6761 193.005 64.4318C192.72 64.1875 192.277 64 191.675 63.8693L189.442 63.4006C188.186 63.1392 187.257 62.6989 186.655 62.0795C186.053 61.4545 185.755 60.6648 185.76 59.7102C185.755 58.9034 185.973 58.2045 186.417 57.6136C186.865 57.017 187.488 56.5568 188.283 56.233C189.084 55.9034 190.007 55.7386 191.053 55.7386C192.587 55.7386 193.794 56.0653 194.675 56.7188C195.561 57.3722 196.11 58.2557 196.32 59.3693ZM205.58 55.9091V58.2955H197.841V55.9091H205.58ZM199.776 69V54.6733C199.776 53.7926 199.958 53.0597 200.321 52.4744C200.691 51.8892 201.185 51.4517 201.804 51.1619C202.424 50.8722 203.111 50.7273 203.867 50.7273C204.401 50.7273 204.875 50.7699 205.29 50.8551C205.705 50.9403 206.012 51.017 206.211 51.0852L205.597 53.4716C205.466 53.4318 205.301 53.392 205.103 53.3523C204.904 53.3068 204.682 53.2841 204.438 53.2841C203.864 53.2841 203.458 53.4233 203.219 53.7017C202.986 53.9744 202.87 54.3665 202.87 54.8778V69H199.776ZM213.103 69.2557C211.791 69.2557 210.657 68.983 209.703 68.4375C208.754 67.8864 208.024 67.108 207.512 66.1023C207.001 65.0909 206.745 63.9006 206.745 62.5312C206.745 61.1847 207.001 60.0028 207.512 58.9858C208.029 57.9631 208.751 57.1676 209.677 56.5994C210.603 56.0256 211.691 55.7386 212.941 55.7386C213.748 55.7386 214.51 55.8693 215.225 56.1307C215.947 56.3864 216.583 56.7841 217.135 57.3239C217.691 57.8636 218.129 58.5511 218.447 59.3864C218.765 60.2159 218.924 61.2045 218.924 62.3523V63.2983H208.194V61.2188H215.967C215.961 60.6278 215.833 60.1023 215.583 59.642C215.333 59.1761 214.984 58.8097 214.535 58.5426C214.092 58.2756 213.575 58.142 212.984 58.142C212.353 58.142 211.799 58.2955 211.322 58.6023C210.845 58.9034 210.473 59.3011 210.206 59.7955C209.944 60.2841 209.811 60.821 209.805 61.4062V63.2216C209.805 63.983 209.944 64.6364 210.223 65.1818C210.501 65.7216 210.89 66.1364 211.39 66.4261C211.89 66.7102 212.475 66.8523 213.146 66.8523C213.595 66.8523 214.001 66.7898 214.365 66.6648C214.728 66.5341 215.044 66.3438 215.311 66.0938C215.578 65.8438 215.779 65.5341 215.916 65.1648L218.797 65.4886C218.615 66.25 218.268 66.9148 217.757 67.483C217.251 68.0455 216.603 68.483 215.814 68.7955C215.024 69.1023 214.12 69.2557 213.103 69.2557ZM221.338 69V55.9091H224.33V58.0909H224.466C224.705 57.3352 225.114 56.7528 225.694 56.3438C226.279 55.929 226.946 55.7216 227.696 55.7216C227.867 55.7216 228.057 55.7301 228.267 55.7472C228.483 55.7585 228.662 55.7784 228.804 55.8068V58.6449C228.674 58.5994 228.466 58.5597 228.182 58.5256C227.904 58.4858 227.634 58.4659 227.373 58.4659C226.81 58.4659 226.304 58.5881 225.855 58.8324C225.412 59.071 225.063 59.4034 224.807 59.8295C224.552 60.2557 224.424 60.7472 224.424 61.304V69H221.338ZM236.552 69V51.5455H247.733V54.196H239.713V58.9347H246.966V61.5852H239.713V69H236.552ZM255.031 69.2557C253.753 69.2557 252.645 68.9744 251.707 68.4119C250.77 67.8494 250.042 67.0625 249.525 66.0511C249.014 65.0398 248.758 63.858 248.758 62.5057C248.758 61.1534 249.014 59.9687 249.525 58.9517C250.042 57.9347 250.77 57.1449 251.707 56.5824C252.645 56.0199 253.753 55.7386 255.031 55.7386C256.309 55.7386 257.417 56.0199 258.355 56.5824C259.292 57.1449 260.017 57.9347 260.528 58.9517C261.045 59.9687 261.304 61.1534 261.304 62.5057C261.304 63.858 261.045 65.0398 260.528 66.0511C260.017 67.0625 259.292 67.8494 258.355 68.4119C257.417 68.9744 256.309 69.2557 255.031 69.2557ZM255.048 66.7841C255.741 66.7841 256.321 66.5937 256.787 66.2131C257.253 65.8267 257.599 65.3097 257.826 64.6619C258.059 64.0142 258.176 63.2926 258.176 62.4972C258.176 61.696 258.059 60.9716 257.826 60.3239C257.599 59.6705 257.253 59.1506 256.787 58.7642C256.321 58.3778 255.741 58.1847 255.048 58.1847C254.338 58.1847 253.747 58.3778 253.275 58.7642C252.809 59.1506 252.46 59.6705 252.227 60.3239C252 60.9716 251.886 61.696 251.886 62.4972C251.886 63.2926 252 64.0142 252.227 64.6619C252.46 65.3097 252.809 65.8267 253.275 66.2131C253.747 66.5937 254.338 66.7841 255.048 66.7841ZM263.726 69V55.9091H266.718V58.0909H266.854C267.093 57.3352 267.502 56.7528 268.081 56.3438C268.667 55.929 269.334 55.7216 270.084 55.7216C270.255 55.7216 270.445 55.7301 270.655 55.7472C270.871 55.7585 271.05 55.7784 271.192 55.8068V58.6449C271.062 58.5994 270.854 58.5597 270.57 58.5256C270.292 58.4858 270.022 58.4659 269.76 58.4659C269.198 58.4659 268.692 58.5881 268.243 58.8324C267.8 59.071 267.451 59.4034 267.195 59.8295C266.939 60.2557 266.812 60.7472 266.812 61.304V69H263.726ZM273.046 69V55.9091H275.995V58.1335H276.148C276.421 57.3835 276.873 56.7983 277.503 56.3778C278.134 55.9517 278.887 55.7386 279.762 55.7386C280.648 55.7386 281.395 55.9545 282.003 56.3864C282.617 56.8125 283.049 57.3949 283.299 58.1335H283.435C283.725 57.4062 284.214 56.8267 284.901 56.3949C285.594 55.9574 286.415 55.7386 287.364 55.7386C288.569 55.7386 289.552 56.1193 290.313 56.8807C291.074 57.642 291.455 58.7528 291.455 60.2131V69H288.361V60.6903C288.361 59.8778 288.145 59.2841 287.714 58.9091C287.282 58.5284 286.753 58.3381 286.128 58.3381C285.384 58.3381 284.802 58.571 284.381 59.0369C283.966 59.4972 283.759 60.0966 283.759 60.8352V69H280.733V60.5625C280.733 59.8864 280.529 59.3466 280.12 58.9432C279.716 58.5398 279.188 58.3381 278.535 58.3381C278.091 58.3381 277.688 58.4517 277.324 58.679C276.961 58.9006 276.671 59.2159 276.455 59.625C276.239 60.0284 276.131 60.5 276.131 61.0398V69H273.046Z" fill="white"/>
<path d="M78.0568 107V98.2727H81.0057C81.6903 98.2727 82.25 98.3963 82.6847 98.6435C83.1222 98.8878 83.446 99.2188 83.6562 99.6364C83.8665 100.054 83.9716 100.52 83.9716 101.034C83.9716 101.548 83.8665 102.016 83.6562 102.436C83.4489 102.857 83.1278 103.192 82.6932 103.442C82.2585 103.689 81.7017 103.812 81.0227 103.812H78.9091V102.875H80.9886C81.4574 102.875 81.8338 102.794 82.1179 102.632C82.402 102.47 82.608 102.251 82.7358 101.976C82.8665 101.697 82.9318 101.384 82.9318 101.034C82.9318 100.685 82.8665 100.372 82.7358 100.097C82.608 99.821 82.4006 99.6051 82.1136 99.4489C81.8267 99.2898 81.446 99.2102 80.9716 99.2102H79.1136V107H78.0568ZM86.3473 98.2727V107H85.3416V98.2727H86.3473ZM90.7376 107.136C90.1069 107.136 89.5629 106.997 89.1055 106.719C88.651 106.438 88.3001 106.045 88.053 105.543C87.8086 105.037 87.6865 104.449 87.6865 103.778C87.6865 103.108 87.8086 102.517 88.053 102.006C88.3001 101.491 88.6439 101.091 89.0842 100.804C89.5274 100.514 90.0444 100.369 90.6353 100.369C90.9763 100.369 91.3129 100.426 91.6453 100.54C91.9777 100.653 92.2802 100.838 92.553 101.094C92.8257 101.347 93.043 101.682 93.2049 102.099C93.3669 102.517 93.4478 103.031 93.4478 103.642V104.068H88.4024V103.199H92.4251C92.4251 102.83 92.3513 102.5 92.2035 102.21C92.0586 101.92 91.8513 101.692 91.5814 101.524C91.3143 101.357 90.999 101.273 90.6353 101.273C90.2348 101.273 89.8882 101.372 89.5956 101.571C89.3058 101.767 89.0828 102.023 88.9265 102.338C88.7703 102.653 88.6922 102.991 88.6922 103.352V103.932C88.6922 104.426 88.7774 104.845 88.9478 105.189C89.1211 105.53 89.3612 105.79 89.668 105.969C89.9748 106.145 90.3314 106.233 90.7376 106.233C91.0018 106.233 91.2405 106.196 91.4535 106.122C91.6694 106.045 91.8555 105.932 92.0118 105.781C92.168 105.628 92.2888 105.437 92.374 105.21L93.3456 105.483C93.2433 105.812 93.0714 106.102 92.8299 106.352C92.5885 106.599 92.2902 106.793 91.9351 106.932C91.5799 107.068 91.1808 107.136 90.7376 107.136ZM96.7078 107.153C96.293 107.153 95.9166 107.075 95.5785 106.919C95.2405 106.76 94.972 106.531 94.7732 106.233C94.5743 105.932 94.4749 105.568 94.4749 105.142C94.4749 104.767 94.5487 104.463 94.6964 104.23C94.8442 103.994 95.0416 103.81 95.2888 103.676C95.5359 103.543 95.8087 103.443 96.107 103.378C96.4081 103.31 96.7107 103.256 97.0146 103.216C97.4124 103.165 97.7348 103.126 97.982 103.101C98.232 103.072 98.4138 103.026 98.5274 102.96C98.6439 102.895 98.7021 102.781 98.7021 102.619V102.585C98.7021 102.165 98.5871 101.838 98.357 101.605C98.1297 101.372 97.7845 101.256 97.3214 101.256C96.8413 101.256 96.4649 101.361 96.1922 101.571C95.9195 101.781 95.7277 102.006 95.6169 102.244L94.6624 101.903C94.8328 101.506 95.0601 101.196 95.3442 100.974C95.6311 100.75 95.9436 100.594 96.2817 100.506C96.6226 100.415 96.9578 100.369 97.2874 100.369C97.4976 100.369 97.7391 100.395 98.0118 100.446C98.2874 100.494 98.553 100.595 98.8087 100.749C99.0672 100.902 99.2817 101.134 99.4521 101.443C99.6226 101.753 99.7078 102.168 99.7078 102.688V107H98.7021V106.114H98.651C98.5828 106.256 98.4692 106.408 98.3101 106.57C98.151 106.732 97.9393 106.869 97.6751 106.983C97.4109 107.097 97.0885 107.153 96.7078 107.153ZM96.8612 106.25C97.2589 106.25 97.5942 106.172 97.8669 106.016C98.1425 105.859 98.3499 105.658 98.4891 105.411C98.6311 105.163 98.7021 104.903 98.7021 104.631V103.71C98.6595 103.761 98.5658 103.808 98.4209 103.851C98.2788 103.891 98.1141 103.926 97.9266 103.957C97.7419 103.986 97.5615 104.011 97.3854 104.034C97.2121 104.054 97.0714 104.071 96.9635 104.085C96.7021 104.119 96.4578 104.175 96.2305 104.251C96.0061 104.325 95.8243 104.437 95.6851 104.588C95.5487 104.736 95.4805 104.937 95.4805 105.193C95.4805 105.543 95.6098 105.807 95.8683 105.986C96.1297 106.162 96.4607 106.25 96.8612 106.25ZM105.984 101.92L105.08 102.176C105.024 102.026 104.94 101.879 104.829 101.737C104.721 101.592 104.573 101.473 104.386 101.379C104.198 101.286 103.958 101.239 103.666 101.239C103.265 101.239 102.931 101.331 102.664 101.516C102.4 101.697 102.268 101.929 102.268 102.21C102.268 102.46 102.359 102.658 102.541 102.803C102.722 102.947 103.006 103.068 103.393 103.165L104.364 103.403C104.95 103.545 105.386 103.763 105.673 104.055C105.96 104.345 106.103 104.719 106.103 105.176C106.103 105.551 105.995 105.886 105.779 106.182C105.566 106.477 105.268 106.71 104.884 106.881C104.501 107.051 104.055 107.136 103.546 107.136C102.879 107.136 102.326 106.991 101.889 106.702C101.451 106.412 101.174 105.989 101.058 105.432L102.012 105.193C102.103 105.545 102.275 105.81 102.528 105.986C102.783 106.162 103.117 106.25 103.529 106.25C103.998 106.25 104.37 106.151 104.646 105.952C104.924 105.75 105.063 105.509 105.063 105.227C105.063 105 104.984 104.81 104.825 104.656C104.666 104.5 104.421 104.384 104.092 104.307L103.001 104.051C102.401 103.909 101.961 103.689 101.68 103.391C101.401 103.089 101.262 102.713 101.262 102.261C101.262 101.892 101.366 101.565 101.573 101.281C101.783 100.997 102.069 100.774 102.43 100.612C102.793 100.45 103.205 100.369 103.666 100.369C104.313 100.369 104.822 100.511 105.191 100.795C105.563 101.08 105.828 101.455 105.984 101.92ZM110.165 107.136C109.535 107.136 108.991 106.997 108.533 106.719C108.079 106.438 107.728 106.045 107.481 105.543C107.236 105.037 107.114 104.449 107.114 103.778C107.114 103.108 107.236 102.517 107.481 102.006C107.728 101.491 108.071 101.091 108.512 100.804C108.955 100.514 109.472 100.369 110.063 100.369C110.404 100.369 110.741 100.426 111.073 100.54C111.405 100.653 111.708 100.838 111.981 101.094C112.253 101.347 112.471 101.682 112.633 102.099C112.795 102.517 112.875 103.031 112.875 103.642V104.068H107.83V103.199H111.853C111.853 102.83 111.779 102.5 111.631 102.21C111.486 101.92 111.279 101.692 111.009 101.524C110.742 101.357 110.427 101.273 110.063 101.273C109.662 101.273 109.316 101.372 109.023 101.571C108.733 101.767 108.51 102.023 108.354 102.338C108.198 102.653 108.12 102.991 108.12 103.352V103.932C108.12 104.426 108.205 104.845 108.375 105.189C108.549 105.53 108.789 105.79 109.096 105.969C109.402 106.145 109.759 106.233 110.165 106.233C110.429 106.233 110.668 106.196 110.881 106.122C111.097 106.045 111.283 105.932 111.439 105.781C111.596 105.628 111.716 105.437 111.802 105.21L112.773 105.483C112.671 105.812 112.499 106.102 112.258 106.352C112.016 106.599 111.718 106.793 111.363 106.932C111.008 107.068 110.608 107.136 110.165 107.136ZM120.133 107.136C119.502 107.136 118.958 106.997 118.501 106.719C118.046 106.438 117.695 106.045 117.448 105.543C117.204 105.037 117.081 104.449 117.081 103.778C117.081 103.108 117.204 102.517 117.448 102.006C117.695 101.491 118.039 101.091 118.479 100.804C118.922 100.514 119.439 100.369 120.03 100.369C120.371 100.369 120.708 100.426 121.04 100.54C121.373 100.653 121.675 100.838 121.948 101.094C122.221 101.347 122.438 101.682 122.6 102.099C122.762 102.517 122.843 103.031 122.843 103.642V104.068H117.797V103.199H121.82C121.82 102.83 121.746 102.5 121.599 102.21C121.454 101.92 121.246 101.692 120.976 101.524C120.709 101.357 120.394 101.273 120.03 101.273C119.63 101.273 119.283 101.372 118.991 101.571C118.701 101.767 118.478 102.023 118.322 102.338C118.165 102.653 118.087 102.991 118.087 103.352V103.932C118.087 104.426 118.172 104.845 118.343 105.189C118.516 105.53 118.756 105.79 119.063 105.969C119.37 106.145 119.726 106.233 120.133 106.233C120.397 106.233 120.635 106.196 120.849 106.122C121.064 106.045 121.251 105.932 121.407 105.781C121.563 105.628 121.684 105.437 121.769 105.21L122.741 105.483C122.638 105.812 122.466 106.102 122.225 106.352C121.983 106.599 121.685 106.793 121.33 106.932C120.975 107.068 120.576 107.136 120.133 107.136ZM125.182 103.062V107H124.177V100.455H125.148V101.477H125.233C125.387 101.145 125.62 100.878 125.932 100.676C126.245 100.472 126.648 100.369 127.143 100.369C127.586 100.369 127.974 100.46 128.306 100.642C128.638 100.821 128.897 101.094 129.082 101.46C129.266 101.824 129.358 102.284 129.358 102.841V107H128.353V102.909C128.353 102.395 128.219 101.994 127.952 101.707C127.685 101.418 127.319 101.273 126.853 101.273C126.532 101.273 126.245 101.342 125.992 101.482C125.742 101.621 125.545 101.824 125.4 102.091C125.255 102.358 125.182 102.682 125.182 103.062ZM133.847 100.455V101.307H130.455V100.455H133.847ZM131.443 98.8864H132.449V105.125C132.449 105.409 132.49 105.622 132.573 105.764C132.658 105.903 132.766 105.997 132.897 106.045C133.03 106.091 133.171 106.114 133.318 106.114C133.429 106.114 133.52 106.108 133.591 106.097C133.662 106.082 133.719 106.071 133.762 106.062L133.966 106.966C133.898 106.991 133.803 107.017 133.681 107.043C133.558 107.071 133.404 107.085 133.216 107.085C132.932 107.085 132.654 107.024 132.381 106.902C132.111 106.78 131.887 106.594 131.708 106.344C131.531 106.094 131.443 105.778 131.443 105.398V98.8864ZM137.838 107.136C137.207 107.136 136.663 106.997 136.205 106.719C135.751 106.438 135.4 106.045 135.153 105.543C134.909 105.037 134.786 104.449 134.786 103.778C134.786 103.108 134.909 102.517 135.153 102.006C135.4 101.491 135.744 101.091 136.184 100.804C136.627 100.514 137.144 100.369 137.735 100.369C138.076 100.369 138.413 100.426 138.745 100.54C139.078 100.653 139.38 100.838 139.653 101.094C139.926 101.347 140.143 101.682 140.305 102.099C140.467 102.517 140.548 103.031 140.548 103.642V104.068H135.502V103.199H139.525C139.525 102.83 139.451 102.5 139.303 102.21C139.159 101.92 138.951 101.692 138.681 101.524C138.414 101.357 138.099 101.273 137.735 101.273C137.335 101.273 136.988 101.372 136.696 101.571C136.406 101.767 136.183 102.023 136.027 102.338C135.87 102.653 135.792 102.991 135.792 103.352V103.932C135.792 104.426 135.877 104.845 136.048 105.189C136.221 105.53 136.461 105.79 136.768 105.969C137.075 106.145 137.431 106.233 137.838 106.233C138.102 106.233 138.34 106.196 138.553 106.122C138.769 106.045 138.955 105.932 139.112 105.781C139.268 105.628 139.389 105.437 139.474 105.21L140.446 105.483C140.343 105.812 140.171 106.102 139.93 106.352C139.688 106.599 139.39 106.793 139.035 106.932C138.68 107.068 138.281 107.136 137.838 107.136ZM141.882 107V100.455H142.853V101.443H142.921C143.041 101.119 143.257 100.857 143.569 100.655C143.882 100.453 144.234 100.352 144.626 100.352C144.7 100.352 144.792 100.354 144.903 100.357C145.014 100.359 145.098 100.364 145.154 100.369V101.392C145.12 101.384 145.042 101.371 144.92 101.354C144.801 101.334 144.674 101.324 144.541 101.324C144.223 101.324 143.938 101.391 143.688 101.524C143.441 101.655 143.245 101.837 143.1 102.07C142.958 102.3 142.887 102.562 142.887 102.858V107H141.882ZM152.176 100.455V101.307H148.784V100.455H152.176ZM149.773 98.8864H150.778V105.125C150.778 105.409 150.82 105.622 150.902 105.764C150.987 105.903 151.095 105.997 151.226 106.045C151.359 106.091 151.5 106.114 151.648 106.114C151.758 106.114 151.849 106.108 151.92 106.097C151.991 106.082 152.048 106.071 152.091 106.062L152.295 106.966C152.227 106.991 152.132 107.017 152.01 107.043C151.888 107.071 151.733 107.085 151.545 107.085C151.261 107.085 150.983 107.024 150.71 106.902C150.44 106.78 150.216 106.594 150.037 106.344C149.861 106.094 149.773 105.778 149.773 105.398V98.8864ZM154.639 103.062V107H153.633V98.2727H154.639V101.477H154.724C154.878 101.139 155.108 100.871 155.415 100.672C155.724 100.47 156.136 100.369 156.651 100.369C157.097 100.369 157.487 100.459 157.822 100.638C158.158 100.814 158.418 101.085 158.602 101.452C158.79 101.815 158.883 102.278 158.883 102.841V107H157.878V102.909C157.878 102.389 157.743 101.987 157.473 101.703C157.206 101.416 156.835 101.273 156.361 101.273C156.031 101.273 155.736 101.342 155.474 101.482C155.216 101.621 155.011 101.824 154.861 102.091C154.713 102.358 154.639 102.682 154.639 103.062ZM163.272 107.136C162.641 107.136 162.097 106.997 161.64 106.719C161.185 106.438 160.834 106.045 160.587 105.543C160.343 105.037 160.221 104.449 160.221 103.778C160.221 103.108 160.343 102.517 160.587 102.006C160.834 101.491 161.178 101.091 161.618 100.804C162.061 100.514 162.578 100.369 163.169 100.369C163.51 100.369 163.847 100.426 164.179 100.54C164.512 100.653 164.814 100.838 165.087 101.094C165.36 101.347 165.577 101.682 165.739 102.099C165.901 102.517 165.982 103.031 165.982 103.642V104.068H160.936V103.199H164.959C164.959 102.83 164.885 102.5 164.738 102.21C164.593 101.92 164.385 101.692 164.115 101.524C163.848 101.357 163.533 101.273 163.169 101.273C162.769 101.273 162.422 101.372 162.13 101.571C161.84 101.767 161.617 102.023 161.461 102.338C161.304 102.653 161.226 102.991 161.226 103.352V103.932C161.226 104.426 161.311 104.845 161.482 105.189C161.655 105.53 161.895 105.79 162.202 105.969C162.509 106.145 162.865 106.233 163.272 106.233C163.536 106.233 163.774 106.196 163.988 106.122C164.203 106.045 164.39 105.932 164.546 105.781C164.702 105.628 164.823 105.437 164.908 105.21L165.88 105.483C165.777 105.812 165.605 106.102 165.364 106.352C165.122 106.599 164.824 106.793 164.469 106.932C164.114 107.068 163.715 107.136 163.272 107.136ZM173.239 107.136C172.608 107.136 172.064 106.997 171.607 106.719C171.152 106.438 170.802 106.045 170.554 105.543C170.31 105.037 170.188 104.449 170.188 103.778C170.188 103.108 170.31 102.517 170.554 102.006C170.802 101.491 171.145 101.091 171.586 100.804C172.029 100.514 172.546 100.369 173.137 100.369C173.478 100.369 173.814 100.426 174.147 100.54C174.479 100.653 174.782 100.838 175.054 101.094C175.327 101.347 175.544 101.682 175.706 102.099C175.868 102.517 175.949 103.031 175.949 103.642V104.068H170.904V103.199H174.927C174.927 102.83 174.853 102.5 174.705 102.21C174.56 101.92 174.353 101.692 174.083 101.524C173.816 101.357 173.5 101.273 173.137 101.273C172.736 101.273 172.39 101.372 172.097 101.571C171.807 101.767 171.584 102.023 171.428 102.338C171.272 102.653 171.194 102.991 171.194 103.352V103.932C171.194 104.426 171.279 104.845 171.449 105.189C171.623 105.53 171.863 105.79 172.169 105.969C172.476 106.145 172.833 106.233 173.239 106.233C173.503 106.233 173.742 106.196 173.955 106.122C174.171 106.045 174.357 105.932 174.513 105.781C174.669 105.628 174.79 105.437 174.875 105.21L175.847 105.483C175.745 105.812 175.573 106.102 175.331 106.352C175.09 106.599 174.792 106.793 174.436 106.932C174.081 107.068 173.682 107.136 173.239 107.136ZM177.283 107V100.455H178.255V101.477H178.34C178.476 101.128 178.696 100.857 179 100.663C179.304 100.467 179.669 100.369 180.096 100.369C180.527 100.369 180.887 100.467 181.174 100.663C181.463 100.857 181.689 101.128 181.851 101.477H181.919C182.087 101.139 182.338 100.871 182.674 100.672C183.009 100.47 183.411 100.369 183.88 100.369C184.465 100.369 184.944 100.553 185.316 100.919C185.688 101.283 185.874 101.849 185.874 102.619V107H184.868V102.619C184.868 102.136 184.736 101.791 184.472 101.584C184.208 101.376 183.897 101.273 183.539 101.273C183.079 101.273 182.722 101.412 182.469 101.69C182.216 101.966 182.09 102.315 182.09 102.739V107H181.067V102.517C181.067 102.145 180.946 101.845 180.705 101.618C180.463 101.388 180.152 101.273 179.772 101.273C179.51 101.273 179.266 101.342 179.039 101.482C178.814 101.621 178.633 101.814 178.493 102.061C178.357 102.305 178.289 102.588 178.289 102.909V107H177.283ZM189.443 107.153C189.028 107.153 188.652 107.075 188.314 106.919C187.976 106.76 187.707 106.531 187.508 106.233C187.309 105.932 187.21 105.568 187.21 105.142C187.21 104.767 187.284 104.463 187.432 104.23C187.579 103.994 187.777 103.81 188.024 103.676C188.271 103.543 188.544 103.443 188.842 103.378C189.143 103.31 189.446 103.256 189.75 103.216C190.147 103.165 190.47 103.126 190.717 103.101C190.967 103.072 191.149 103.026 191.263 102.96C191.379 102.895 191.437 102.781 191.437 102.619V102.585C191.437 102.165 191.322 101.838 191.092 101.605C190.865 101.372 190.52 101.256 190.057 101.256C189.576 101.256 189.2 101.361 188.927 101.571C188.655 101.781 188.463 102.006 188.352 102.244L187.397 101.903C187.568 101.506 187.795 101.196 188.079 100.974C188.366 100.75 188.679 100.594 189.017 100.506C189.358 100.415 189.693 100.369 190.022 100.369C190.233 100.369 190.474 100.395 190.747 100.446C191.022 100.494 191.288 100.595 191.544 100.749C191.802 100.902 192.017 101.134 192.187 101.443C192.358 101.753 192.443 102.168 192.443 102.688V107H191.437V106.114H191.386C191.318 106.256 191.204 106.408 191.045 106.57C190.886 106.732 190.674 106.869 190.41 106.983C190.146 107.097 189.824 107.153 189.443 107.153ZM189.596 106.25C189.994 106.25 190.329 106.172 190.602 106.016C190.878 105.859 191.085 105.658 191.224 105.411C191.366 105.163 191.437 104.903 191.437 104.631V103.71C191.395 103.761 191.301 103.808 191.156 103.851C191.014 103.891 190.849 103.926 190.662 103.957C190.477 103.986 190.297 104.011 190.12 104.034C189.947 104.054 189.807 104.071 189.699 104.085C189.437 104.119 189.193 104.175 188.966 104.251C188.741 104.325 188.559 104.437 188.42 104.588C188.284 104.736 188.216 104.937 188.216 105.193C188.216 105.543 188.345 105.807 188.603 105.986C188.865 106.162 189.196 106.25 189.596 106.25ZM194.082 107V100.455H195.088V107H194.082ZM194.594 99.3636C194.398 99.3636 194.229 99.2969 194.087 99.1634C193.948 99.0298 193.878 98.8693 193.878 98.6818C193.878 98.4943 193.948 98.3338 194.087 98.2003C194.229 98.0668 194.398 98 194.594 98C194.79 98 194.957 98.0668 195.097 98.2003C195.239 98.3338 195.31 98.4943 195.31 98.6818C195.31 98.8693 195.239 99.0298 195.097 99.1634C194.957 99.2969 194.79 99.3636 194.594 99.3636ZM197.74 98.2727V107H196.734V98.2727H197.74ZM204.491 107.153C204.076 107.153 203.7 107.075 203.362 106.919C203.024 106.76 202.755 106.531 202.556 106.233C202.357 105.932 202.258 105.568 202.258 105.142C202.258 104.767 202.332 104.463 202.48 104.23C202.627 103.994 202.825 103.81 203.072 103.676C203.319 103.543 203.592 103.443 203.89 103.378C204.191 103.31 204.494 103.256 204.798 103.216C205.195 103.165 205.518 103.126 205.765 103.101C206.015 103.072 206.197 103.026 206.311 102.96C206.427 102.895 206.485 102.781 206.485 102.619V102.585C206.485 102.165 206.37 101.838 206.14 101.605C205.913 101.372 205.568 101.256 205.105 101.256C204.624 101.256 204.248 101.361 203.975 101.571C203.703 101.781 203.511 102.006 203.4 102.244L202.445 101.903C202.616 101.506 202.843 101.196 203.127 100.974C203.414 100.75 203.727 100.594 204.065 100.506C204.406 100.415 204.741 100.369 205.07 100.369C205.281 100.369 205.522 100.395 205.795 100.446C206.07 100.494 206.336 100.595 206.592 100.749C206.85 100.902 207.065 101.134 207.235 101.443C207.406 101.753 207.491 102.168 207.491 102.688V107H206.485V106.114H206.434C206.366 106.256 206.252 106.408 206.093 106.57C205.934 106.732 205.722 106.869 205.458 106.983C205.194 107.097 204.872 107.153 204.491 107.153ZM204.644 106.25C205.042 106.25 205.377 106.172 205.65 106.016C205.926 105.859 206.133 105.658 206.272 105.411C206.414 105.163 206.485 104.903 206.485 104.631V103.71C206.443 103.761 206.349 103.808 206.204 103.851C206.062 103.891 205.897 103.926 205.71 103.957C205.525 103.986 205.345 104.011 205.168 104.034C204.995 104.054 204.855 104.071 204.747 104.085C204.485 104.119 204.241 104.175 204.014 104.251C203.789 104.325 203.607 104.437 203.468 104.588C203.332 104.736 203.264 104.937 203.264 105.193C203.264 105.543 203.393 105.807 203.651 105.986C203.913 106.162 204.244 106.25 204.644 106.25ZM211.602 107.136C211.057 107.136 210.575 106.999 210.158 106.723C209.74 106.445 209.413 106.053 209.177 105.547C208.942 105.038 208.824 104.438 208.824 103.744C208.824 103.057 208.942 102.46 209.177 101.955C209.413 101.449 209.741 101.058 210.162 100.783C210.582 100.507 211.068 100.369 211.619 100.369C212.045 100.369 212.382 100.44 212.629 100.582C212.879 100.722 213.069 100.881 213.2 101.06C213.334 101.236 213.437 101.381 213.511 101.494H213.596V98.2727H214.602V107H213.631V105.994H213.511C213.437 106.114 213.332 106.264 213.196 106.446C213.059 106.625 212.865 106.786 212.612 106.928C212.359 107.067 212.023 107.136 211.602 107.136ZM211.738 106.233C212.142 106.233 212.483 106.128 212.761 105.918C213.04 105.705 213.251 105.411 213.396 105.036C213.541 104.658 213.613 104.222 213.613 103.727C213.613 103.239 213.542 102.811 213.4 102.445C213.258 102.075 213.048 101.788 212.77 101.584C212.491 101.376 212.148 101.273 211.738 101.273C211.312 101.273 210.957 101.382 210.673 101.601C210.392 101.817 210.18 102.111 210.038 102.483C209.899 102.852 209.829 103.267 209.829 103.727C209.829 104.193 209.9 104.616 210.042 104.997C210.187 105.375 210.4 105.676 210.682 105.901C210.966 106.122 211.318 106.233 211.738 106.233ZM218.859 107.136C218.314 107.136 217.832 106.999 217.415 106.723C216.997 106.445 216.67 106.053 216.435 105.547C216.199 105.038 216.081 104.438 216.081 103.744C216.081 103.057 216.199 102.46 216.435 101.955C216.67 101.449 216.998 101.058 217.419 100.783C217.839 100.507 218.325 100.369 218.876 100.369C219.302 100.369 219.639 100.44 219.886 100.582C220.136 100.722 220.327 100.881 220.457 101.06C220.591 101.236 220.694 101.381 220.768 101.494H220.854V98.2727H221.859V107H220.888V105.994H220.768C220.694 106.114 220.589 106.264 220.453 106.446C220.317 106.625 220.122 106.786 219.869 106.928C219.616 107.067 219.28 107.136 218.859 107.136ZM218.996 106.233C219.399 106.233 219.74 106.128 220.018 105.918C220.297 105.705 220.508 105.411 220.653 105.036C220.798 104.658 220.871 104.222 220.871 103.727C220.871 103.239 220.8 102.811 220.658 102.445C220.515 102.075 220.305 101.788 220.027 101.584C219.748 101.376 219.405 101.273 218.996 101.273C218.569 101.273 218.214 101.382 217.93 101.601C217.649 101.817 217.437 102.111 217.295 102.483C217.156 102.852 217.087 103.267 217.087 103.727C217.087 104.193 217.158 104.616 217.3 104.997C217.444 105.375 217.658 105.676 217.939 105.901C218.223 106.122 218.575 106.233 218.996 106.233ZM223.645 107V100.455H224.616V101.443H224.685C224.804 101.119 225.02 100.857 225.332 100.655C225.645 100.453 225.997 100.352 226.389 100.352C226.463 100.352 226.555 100.354 226.666 100.357C226.777 100.359 226.861 100.364 226.918 100.369V101.392C226.883 101.384 226.805 101.371 226.683 101.354C226.564 101.334 226.437 101.324 226.304 101.324C225.986 101.324 225.702 101.391 225.452 101.524C225.204 101.655 225.008 101.837 224.864 102.07C224.721 102.3 224.65 102.562 224.65 102.858V107H223.645ZM230.459 107.136C229.828 107.136 229.284 106.997 228.827 106.719C228.372 106.438 228.021 106.045 227.774 105.543C227.53 105.037 227.408 104.449 227.408 103.778C227.408 103.108 227.53 102.517 227.774 102.006C228.021 101.491 228.365 101.091 228.805 100.804C229.248 100.514 229.766 100.369 230.356 100.369C230.697 100.369 231.034 100.426 231.366 100.54C231.699 100.653 232.001 100.838 232.274 101.094C232.547 101.347 232.764 101.682 232.926 102.099C233.088 102.517 233.169 103.031 233.169 103.642V104.068H228.123V103.199H232.146C232.146 102.83 232.072 102.5 231.925 102.21C231.78 101.92 231.572 101.692 231.302 101.524C231.035 101.357 230.72 101.273 230.356 101.273C229.956 101.273 229.609 101.372 229.317 101.571C229.027 101.767 228.804 102.023 228.648 102.338C228.491 102.653 228.413 102.991 228.413 103.352V103.932C228.413 104.426 228.498 104.845 228.669 105.189C228.842 105.53 229.082 105.79 229.389 105.969C229.696 106.145 230.052 106.233 230.459 106.233C230.723 106.233 230.962 106.196 231.175 106.122C231.391 106.045 231.577 105.932 231.733 105.781C231.889 105.628 232.01 105.437 232.095 105.21L233.067 105.483C232.964 105.812 232.793 106.102 232.551 106.352C232.31 106.599 232.011 106.793 231.656 106.932C231.301 107.068 230.902 107.136 230.459 107.136ZM239.139 101.92L238.236 102.176C238.179 102.026 238.095 101.879 237.984 101.737C237.876 101.592 237.729 101.473 237.541 101.379C237.354 101.286 237.114 101.239 236.821 101.239C236.42 101.239 236.087 101.331 235.82 101.516C235.555 101.697 235.423 101.929 235.423 102.21C235.423 102.46 235.514 102.658 235.696 102.803C235.878 102.947 236.162 103.068 236.548 103.165L237.52 103.403C238.105 103.545 238.541 103.763 238.828 104.055C239.115 104.345 239.258 104.719 239.258 105.176C239.258 105.551 239.15 105.886 238.935 106.182C238.722 106.477 238.423 106.71 238.04 106.881C237.656 107.051 237.21 107.136 236.702 107.136C236.034 107.136 235.481 106.991 235.044 106.702C234.606 106.412 234.329 105.989 234.213 105.432L235.168 105.193C235.258 105.545 235.43 105.81 235.683 105.986C235.939 106.162 236.273 106.25 236.685 106.25C237.153 106.25 237.525 106.151 237.801 105.952C238.079 105.75 238.219 105.509 238.219 105.227C238.219 105 238.139 104.81 237.98 104.656C237.821 104.5 237.577 104.384 237.247 104.307L236.156 104.051C235.557 103.909 235.116 103.689 234.835 103.391C234.557 103.089 234.418 102.713 234.418 102.261C234.418 101.892 234.521 101.565 234.729 101.281C234.939 100.997 235.224 100.774 235.585 100.612C235.949 100.45 236.361 100.369 236.821 100.369C237.469 100.369 237.977 100.511 238.347 100.795C238.719 101.08 238.983 101.455 239.139 101.92ZM245.213 101.92L244.309 102.176C244.252 102.026 244.169 101.879 244.058 101.737C243.95 101.592 243.802 101.473 243.615 101.379C243.427 101.286 243.187 101.239 242.894 101.239C242.494 101.239 242.16 101.331 241.893 101.516C241.629 101.697 241.497 101.929 241.497 102.21C241.497 102.46 241.588 102.658 241.769 102.803C241.951 102.947 242.235 103.068 242.622 103.165L243.593 103.403C244.179 103.545 244.615 103.763 244.902 104.055C245.189 104.345 245.332 104.719 245.332 105.176C245.332 105.551 245.224 105.886 245.008 106.182C244.795 106.477 244.497 106.71 244.113 106.881C243.73 107.051 243.284 107.136 242.775 107.136C242.108 107.136 241.555 106.991 241.117 106.702C240.68 106.412 240.403 105.989 240.287 105.432L241.241 105.193C241.332 105.545 241.504 105.81 241.757 105.986C242.012 106.162 242.346 106.25 242.758 106.25C243.227 106.25 243.599 106.151 243.875 105.952C244.153 105.75 244.292 105.509 244.292 105.227C244.292 105 244.213 104.81 244.054 104.656C243.894 104.5 243.65 104.384 243.321 104.307L242.23 104.051C241.63 103.909 241.19 103.689 240.909 103.391C240.63 103.089 240.491 102.713 240.491 102.261C240.491 101.892 240.595 101.565 240.802 101.281C241.012 100.997 241.298 100.774 241.659 100.612C242.022 100.45 242.434 100.369 242.894 100.369C243.542 100.369 244.051 100.511 244.42 100.795C244.792 101.08 245.056 101.455 245.213 101.92ZM252.675 100.455V101.307H249.283V100.455H252.675ZM250.272 98.8864H251.278V105.125C251.278 105.409 251.319 105.622 251.401 105.764C251.486 105.903 251.594 105.997 251.725 106.045C251.859 106.091 251.999 106.114 252.147 106.114C252.258 106.114 252.349 106.108 252.42 106.097C252.491 106.082 252.548 106.071 252.59 106.062L252.795 106.966C252.727 106.991 252.631 107.017 252.509 107.043C252.387 107.071 252.232 107.085 252.045 107.085C251.761 107.085 251.482 107.024 251.21 106.902C250.94 106.78 250.715 106.594 250.536 106.344C250.36 106.094 250.272 105.778 250.272 105.398V98.8864ZM256.581 107.136C255.99 107.136 255.472 106.996 255.026 106.714C254.582 106.433 254.236 106.04 253.986 105.534C253.739 105.028 253.615 104.437 253.615 103.761C253.615 103.08 253.739 102.484 253.986 101.976C254.236 101.467 254.582 101.072 255.026 100.791C255.472 100.51 255.99 100.369 256.581 100.369C257.172 100.369 257.689 100.51 258.132 100.791C258.578 101.072 258.925 101.467 259.172 101.976C259.422 102.484 259.547 103.08 259.547 103.761C259.547 104.437 259.422 105.028 259.172 105.534C258.925 106.04 258.578 106.433 258.132 106.714C257.689 106.996 257.172 107.136 256.581 107.136ZM256.581 106.233C257.03 106.233 257.399 106.118 257.689 105.888C257.979 105.658 258.193 105.355 258.332 104.98C258.472 104.605 258.541 104.199 258.541 103.761C258.541 103.324 258.472 102.916 258.332 102.538C258.193 102.161 257.979 101.855 257.689 101.622C257.399 101.389 257.03 101.273 256.581 101.273C256.132 101.273 255.763 101.389 255.473 101.622C255.183 101.855 254.969 102.161 254.83 102.538C254.69 102.916 254.621 103.324 254.621 103.761C254.621 104.199 254.69 104.605 254.83 104.98C254.969 105.355 255.183 105.658 255.473 105.888C255.763 106.118 256.132 106.233 256.581 106.233ZM265.548 107L263.554 100.455H264.611L266.025 105.466H266.093L267.491 100.455H268.565L269.946 105.449H270.014L271.429 100.455H272.486L270.491 107H269.503L268.071 101.972H267.968L266.537 107H265.548ZM274.625 103.062V107H273.619V98.2727H274.625V101.477H274.71C274.863 101.139 275.093 100.871 275.4 100.672C275.71 100.47 276.122 100.369 276.636 100.369C277.082 100.369 277.473 100.459 277.808 100.638C278.143 100.814 278.403 101.085 278.588 101.452C278.775 101.815 278.869 102.278 278.869 102.841V107H277.863V102.909C277.863 102.389 277.728 101.987 277.459 101.703C277.191 101.416 276.821 101.273 276.346 101.273C276.017 101.273 275.721 101.342 275.46 101.482C275.201 101.621 274.997 101.824 274.846 102.091C274.699 102.358 274.625 102.682 274.625 103.062ZM280.513 107V100.455H281.519V107H280.513ZM281.024 99.3636C280.828 99.3636 280.659 99.2969 280.517 99.1634C280.378 99.0298 280.308 98.8693 280.308 98.6818C280.308 98.4943 280.378 98.3338 280.517 98.2003C280.659 98.0668 280.828 98 281.024 98C281.22 98 281.388 98.0668 281.527 98.2003C281.669 98.3338 281.74 98.4943 281.74 98.6818C281.74 98.8693 281.669 99.0298 281.527 99.1634C281.388 99.2969 281.22 99.3636 281.024 99.3636ZM285.824 107.136C285.21 107.136 284.682 106.991 284.238 106.702C283.795 106.412 283.454 106.013 283.216 105.504C282.977 104.996 282.858 104.415 282.858 103.761C282.858 103.097 282.98 102.51 283.224 102.001C283.471 101.49 283.815 101.091 284.255 100.804C284.699 100.514 285.216 100.369 285.807 100.369C286.267 100.369 286.682 100.455 287.051 100.625C287.42 100.795 287.723 101.034 287.959 101.341C288.194 101.648 288.341 102.006 288.398 102.415H287.392C287.315 102.116 287.145 101.852 286.88 101.622C286.619 101.389 286.267 101.273 285.824 101.273C285.432 101.273 285.088 101.375 284.792 101.58C284.5 101.781 284.271 102.067 284.106 102.436C283.944 102.803 283.863 103.233 283.863 103.727C283.863 104.233 283.943 104.673 284.102 105.048C284.264 105.423 284.491 105.714 284.784 105.922C285.079 106.129 285.426 106.233 285.824 106.233C286.085 106.233 286.322 106.188 286.535 106.097C286.748 106.006 286.929 105.875 287.076 105.705C287.224 105.534 287.329 105.33 287.392 105.091H288.398C288.341 105.477 288.2 105.825 287.976 106.135C287.754 106.442 287.46 106.686 287.094 106.868C286.73 107.047 286.307 107.136 285.824 107.136ZM290.677 103.062V107H289.672V98.2727H290.677V101.477H290.763C290.916 101.139 291.146 100.871 291.453 100.672C291.763 100.47 292.175 100.369 292.689 100.369C293.135 100.369 293.525 100.459 293.861 100.638C294.196 100.814 294.456 101.085 294.64 101.452C294.828 101.815 294.922 102.278 294.922 102.841V107H293.916V102.909C293.916 102.389 293.781 101.987 293.511 101.703C293.244 101.416 292.873 101.273 292.399 101.273C292.069 101.273 291.774 101.342 291.513 101.482C291.254 101.621 291.05 101.824 290.899 102.091C290.751 102.358 290.677 102.682 290.677 103.062ZM300.392 109.455C300.222 109.455 300.07 109.44 299.936 109.412C299.803 109.386 299.71 109.361 299.659 109.335L299.915 108.449C300.159 108.511 300.375 108.534 300.563 108.517C300.75 108.5 300.916 108.416 301.061 108.266C301.209 108.118 301.344 107.878 301.466 107.545L301.654 107.034L299.233 100.455H300.324L302.131 105.67H302.199L304.006 100.455H305.097L302.318 107.955C302.193 108.293 302.039 108.572 301.854 108.794C301.669 109.018 301.455 109.185 301.21 109.293C300.969 109.401 300.696 109.455 300.392 109.455ZM308.653 107.136C308.062 107.136 307.544 106.996 307.098 106.714C306.654 106.433 306.308 106.04 306.058 105.534C305.811 105.028 305.687 104.437 305.687 103.761C305.687 103.08 305.811 102.484 306.058 101.976C306.308 101.467 306.654 101.072 307.098 100.791C307.544 100.51 308.062 100.369 308.653 100.369C309.244 100.369 309.761 100.51 310.204 100.791C310.65 101.072 310.997 101.467 311.244 101.976C311.494 102.484 311.619 103.08 311.619 103.761C311.619 104.437 311.494 105.028 311.244 105.534C310.997 106.04 310.65 106.433 310.204 106.714C309.761 106.996 309.244 107.136 308.653 107.136ZM308.653 106.233C309.102 106.233 309.471 106.118 309.761 105.888C310.051 105.658 310.265 105.355 310.404 104.98C310.544 104.605 310.613 104.199 310.613 103.761C310.613 103.324 310.544 102.916 310.404 102.538C310.265 102.161 310.051 101.855 309.761 101.622C309.471 101.389 309.102 101.273 308.653 101.273C308.204 101.273 307.835 101.389 307.545 101.622C307.255 101.855 307.041 102.161 306.902 102.538C306.762 102.916 306.693 103.324 306.693 103.761C306.693 104.199 306.762 104.605 306.902 104.98C307.041 105.355 307.255 105.658 307.545 105.888C307.835 106.118 308.204 106.233 308.653 106.233ZM317.083 104.324V100.455H318.089V107H317.083V105.892H317.015C316.861 106.224 316.623 106.507 316.299 106.74C315.975 106.97 315.566 107.085 315.072 107.085C314.663 107.085 314.299 106.996 313.981 106.817C313.663 106.635 313.413 106.362 313.231 105.999C313.049 105.632 312.958 105.17 312.958 104.614V100.455H313.964V104.545C313.964 105.023 314.097 105.403 314.364 105.688C314.634 105.972 314.978 106.114 315.395 106.114C315.645 106.114 315.9 106.05 316.158 105.922C316.42 105.794 316.638 105.598 316.815 105.334C316.994 105.07 317.083 104.733 317.083 104.324ZM324.397 107L322.402 100.455H323.459L324.874 105.466H324.942L326.34 100.455H327.414L328.794 105.449H328.863L330.277 100.455H331.334L329.34 107H328.351L326.919 101.972H326.817L325.385 107H324.397ZM332.468 107V100.455H333.473V107H332.468ZM332.979 99.3636C332.783 99.3636 332.614 99.2969 332.472 99.1634C332.333 99.0298 332.263 98.8693 332.263 98.6818C332.263 98.4943 332.333 98.3338 332.472 98.2003C332.614 98.0668 332.783 98 332.979 98C333.175 98 333.343 98.0668 333.482 98.2003C333.624 98.3338 333.695 98.4943 333.695 98.6818C333.695 98.8693 333.624 99.0298 333.482 99.1634C333.343 99.2969 333.175 99.3636 332.979 99.3636ZM339.756 101.92L338.852 102.176C338.795 102.026 338.712 101.879 338.601 101.737C338.493 101.592 338.345 101.473 338.158 101.379C337.97 101.286 337.73 101.239 337.437 101.239C337.037 101.239 336.703 101.331 336.436 101.516C336.172 101.697 336.04 101.929 336.04 102.21C336.04 102.46 336.131 102.658 336.312 102.803C336.494 102.947 336.778 103.068 337.165 103.165L338.136 103.403C338.722 103.545 339.158 103.763 339.445 104.055C339.732 104.345 339.875 104.719 339.875 105.176C339.875 105.551 339.767 105.886 339.551 106.182C339.338 106.477 339.04 106.71 338.656 106.881C338.273 107.051 337.827 107.136 337.318 107.136C336.651 107.136 336.098 106.991 335.661 106.702C335.223 106.412 334.946 105.989 334.83 105.432L335.784 105.193C335.875 105.545 336.047 105.81 336.3 105.986C336.555 106.162 336.889 106.25 337.301 106.25C337.77 106.25 338.142 106.151 338.418 105.952C338.696 105.75 338.835 105.509 338.835 105.227C338.835 105 338.756 104.81 338.597 104.656C338.437 104.5 338.193 104.384 337.864 104.307L336.773 104.051C336.173 103.909 335.733 103.689 335.452 103.391C335.173 103.089 335.034 102.713 335.034 102.261C335.034 101.892 335.138 101.565 335.345 101.281C335.555 100.997 335.841 100.774 336.202 100.612C336.565 100.45 336.977 100.369 337.437 100.369C338.085 100.369 338.594 100.511 338.963 100.795C339.335 101.08 339.599 101.455 339.756 101.92ZM342.199 103.062V107H341.193V98.2727H342.199V101.477H342.284C342.437 101.139 342.667 100.871 342.974 100.672C343.284 100.47 343.696 100.369 344.21 100.369C344.656 100.369 345.047 100.459 345.382 100.638C345.717 100.814 345.977 101.085 346.162 101.452C346.349 101.815 346.443 102.278 346.443 102.841V107H345.437V102.909C345.437 102.389 345.302 101.987 345.032 101.703C344.765 101.416 344.395 101.273 343.92 101.273C343.591 101.273 343.295 101.342 343.034 101.482C342.775 101.621 342.571 101.824 342.42 102.091C342.272 102.358 342.199 102.682 342.199 103.062ZM80.767 115.455V116.307H77.375V115.455H80.767ZM78.3636 113.886H79.3693V120.125C79.3693 120.409 79.4105 120.622 79.4929 120.764C79.5781 120.903 79.6861 120.997 79.8168 121.045C79.9503 121.091 80.0909 121.114 80.2386 121.114C80.3494 121.114 80.4403 121.108 80.5114 121.097C80.5824 121.082 80.6392 121.071 80.6818 121.062L80.8864 121.966C80.8182 121.991 80.723 122.017 80.6009 122.043C80.4787 122.071 80.3239 122.085 80.1364 122.085C79.8523 122.085 79.5739 122.024 79.3011 121.902C79.0313 121.78 78.8068 121.594 78.6278 121.344C78.4517 121.094 78.3636 120.778 78.3636 120.398V113.886ZM84.6726 122.136C84.0817 122.136 83.5632 121.996 83.1172 121.714C82.674 121.433 82.3274 121.04 82.0774 120.534C81.8303 120.028 81.7067 119.437 81.7067 118.761C81.7067 118.08 81.8303 117.484 82.0774 116.976C82.3274 116.467 82.674 116.072 83.1172 115.791C83.5632 115.51 84.0817 115.369 84.6726 115.369C85.2635 115.369 85.7806 115.51 86.2237 115.791C86.6698 116.072 87.0164 116.467 87.2635 116.976C87.5135 117.484 87.6385 118.08 87.6385 118.761C87.6385 119.437 87.5135 120.028 87.2635 120.534C87.0164 121.04 86.6698 121.433 86.2237 121.714C85.7806 121.996 85.2635 122.136 84.6726 122.136ZM84.6726 121.233C85.1215 121.233 85.4908 121.118 85.7806 120.888C86.0703 120.658 86.2848 120.355 86.424 119.98C86.5632 119.605 86.6328 119.199 86.6328 118.761C86.6328 118.324 86.5632 117.916 86.424 117.538C86.2848 117.161 86.0703 116.855 85.7806 116.622C85.4908 116.389 85.1215 116.273 84.6726 116.273C84.2237 116.273 83.8544 116.389 83.5647 116.622C83.2749 116.855 83.0604 117.161 82.9212 117.538C82.782 117.916 82.7124 118.324 82.7124 118.761C82.7124 119.199 82.782 119.605 82.9212 119.98C83.0604 120.355 83.2749 120.658 83.5647 120.888C83.8544 121.118 84.2237 121.233 84.6726 121.233ZM95.0033 115.455V116.307H91.6112V115.455H95.0033ZM92.5999 113.886H93.6055V120.125C93.6055 120.409 93.6467 120.622 93.7291 120.764C93.8143 120.903 93.9223 120.997 94.053 121.045C94.1865 121.091 94.3271 121.114 94.4749 121.114C94.5857 121.114 94.6766 121.108 94.7476 121.097C94.8186 121.082 94.8754 121.071 94.918 121.062L95.1226 121.966C95.0544 121.991 94.9592 122.017 94.8371 122.043C94.7149 122.071 94.5601 122.085 94.3726 122.085C94.0885 122.085 93.8101 122.024 93.5374 121.902C93.2675 121.78 93.043 121.594 92.8641 121.344C92.6879 121.094 92.5999 120.778 92.5999 120.398V113.886ZM96.32 122V115.455H97.2916V116.443H97.3598C97.4791 116.119 97.695 115.857 98.0075 115.655C98.32 115.453 98.6723 115.352 99.0644 115.352C99.1382 115.352 99.2306 115.354 99.3414 115.357C99.4522 115.359 99.536 115.364 99.5928 115.369V116.392C99.5587 116.384 99.4806 116.371 99.3584 116.354C99.2391 116.334 99.1127 116.324 98.9791 116.324C98.661 116.324 98.3769 116.391 98.1269 116.524C97.8797 116.655 97.6837 116.837 97.5388 117.07C97.3968 117.3 97.3257 117.562 97.3257 117.858V122H96.32ZM102.515 122.153C102.1 122.153 101.724 122.075 101.386 121.919C101.048 121.76 100.779 121.531 100.58 121.233C100.382 120.932 100.282 120.568 100.282 120.142C100.282 119.767 100.356 119.463 100.504 119.23C100.651 118.994 100.849 118.81 101.096 118.676C101.343 118.543 101.616 118.443 101.914 118.378C102.215 118.31 102.518 118.256 102.822 118.216C103.22 118.165 103.542 118.126 103.789 118.101C104.039 118.072 104.221 118.026 104.335 117.96C104.451 117.895 104.509 117.781 104.509 117.619V117.585C104.509 117.165 104.394 116.838 104.164 116.605C103.937 116.372 103.592 116.256 103.129 116.256C102.649 116.256 102.272 116.361 101.999 116.571C101.727 116.781 101.535 117.006 101.424 117.244L100.47 116.903C100.64 116.506 100.867 116.196 101.151 115.974C101.438 115.75 101.751 115.594 102.089 115.506C102.43 115.415 102.765 115.369 103.095 115.369C103.305 115.369 103.546 115.395 103.819 115.446C104.095 115.494 104.36 115.595 104.616 115.749C104.874 115.902 105.089 116.134 105.259 116.443C105.43 116.753 105.515 117.168 105.515 117.688V122H104.509V121.114H104.458C104.39 121.256 104.276 121.408 104.117 121.57C103.958 121.732 103.747 121.869 103.482 121.983C103.218 122.097 102.896 122.153 102.515 122.153ZM102.668 121.25C103.066 121.25 103.401 121.172 103.674 121.016C103.95 120.859 104.157 120.658 104.296 120.411C104.438 120.163 104.509 119.903 104.509 119.631V118.71C104.467 118.761 104.373 118.808 104.228 118.851C104.086 118.891 103.921 118.926 103.734 118.957C103.549 118.986 103.369 119.011 103.193 119.034C103.019 119.054 102.879 119.071 102.771 119.085C102.509 119.119 102.265 119.175 102.038 119.251C101.813 119.325 101.632 119.437 101.492 119.588C101.356 119.736 101.288 119.937 101.288 120.193C101.288 120.543 101.417 120.807 101.676 120.986C101.937 121.162 102.268 121.25 102.668 121.25ZM108.16 118.062V122H107.155V115.455H108.126V116.477H108.211C108.365 116.145 108.598 115.878 108.91 115.676C109.223 115.472 109.626 115.369 110.121 115.369C110.564 115.369 110.951 115.46 111.284 115.642C111.616 115.821 111.875 116.094 112.059 116.46C112.244 116.824 112.336 117.284 112.336 117.841V122H111.331V117.909C111.331 117.395 111.197 116.994 110.93 116.707C110.663 116.418 110.297 116.273 109.831 116.273C109.51 116.273 109.223 116.342 108.97 116.482C108.72 116.621 108.523 116.824 108.378 117.091C108.233 117.358 108.16 117.682 108.16 118.062ZM118.615 116.92L117.711 117.176C117.654 117.026 117.57 116.879 117.46 116.737C117.352 116.592 117.204 116.473 117.016 116.379C116.829 116.286 116.589 116.239 116.296 116.239C115.896 116.239 115.562 116.331 115.295 116.516C115.031 116.697 114.899 116.929 114.899 117.21C114.899 117.46 114.99 117.658 115.171 117.803C115.353 117.947 115.637 118.068 116.024 118.165L116.995 118.403C117.58 118.545 118.016 118.763 118.303 119.055C118.59 119.345 118.734 119.719 118.734 120.176C118.734 120.551 118.626 120.886 118.41 121.182C118.197 121.477 117.899 121.71 117.515 121.881C117.132 122.051 116.686 122.136 116.177 122.136C115.509 122.136 114.957 121.991 114.519 121.702C114.082 121.412 113.805 120.989 113.688 120.432L114.643 120.193C114.734 120.545 114.906 120.81 115.159 120.986C115.414 121.162 115.748 121.25 116.16 121.25C116.629 121.25 117.001 121.151 117.276 120.952C117.555 120.75 117.694 120.509 117.694 120.227C117.694 120 117.615 119.81 117.455 119.656C117.296 119.5 117.052 119.384 116.722 119.307L115.632 119.051C115.032 118.909 114.592 118.689 114.311 118.391C114.032 118.089 113.893 117.713 113.893 117.261C113.893 116.892 113.997 116.565 114.204 116.281C114.414 115.997 114.7 115.774 115.061 115.612C115.424 115.45 115.836 115.369 116.296 115.369C116.944 115.369 117.453 115.511 117.822 115.795C118.194 116.08 118.458 116.455 118.615 116.92ZM122.966 115.455V116.307H119.438V115.455H122.966ZM120.495 122V114.551C120.495 114.176 120.583 113.864 120.759 113.614C120.935 113.364 121.164 113.176 121.445 113.051C121.726 112.926 122.023 112.864 122.336 112.864C122.583 112.864 122.785 112.884 122.941 112.923C123.097 112.963 123.214 113 123.29 113.034L123.001 113.903C122.949 113.886 122.878 113.865 122.787 113.839C122.699 113.814 122.583 113.801 122.438 113.801C122.106 113.801 121.866 113.885 121.718 114.053C121.573 114.22 121.501 114.466 121.501 114.79V122H120.495ZM126.655 122.136C126.024 122.136 125.48 121.997 125.023 121.719C124.568 121.438 124.217 121.045 123.97 120.543C123.726 120.037 123.604 119.449 123.604 118.778C123.604 118.108 123.726 117.517 123.97 117.006C124.217 116.491 124.561 116.091 125.001 115.804C125.444 115.514 125.961 115.369 126.552 115.369C126.893 115.369 127.23 115.426 127.562 115.54C127.895 115.653 128.197 115.838 128.47 116.094C128.743 116.347 128.96 116.682 129.122 117.099C129.284 117.517 129.365 118.031 129.365 118.642V119.068H124.319V118.199H128.342C128.342 117.83 128.268 117.5 128.121 117.21C127.976 116.92 127.768 116.692 127.498 116.524C127.231 116.357 126.916 116.273 126.552 116.273C126.152 116.273 125.805 116.372 125.513 116.571C125.223 116.767 125 117.023 124.844 117.338C124.687 117.653 124.609 117.991 124.609 118.352V118.932C124.609 119.426 124.694 119.845 124.865 120.189C125.038 120.53 125.278 120.79 125.585 120.969C125.892 121.145 126.248 121.233 126.655 121.233C126.919 121.233 127.158 121.196 127.371 121.122C127.586 121.045 127.773 120.932 127.929 120.781C128.085 120.628 128.206 120.437 128.291 120.21L129.263 120.483C129.16 120.812 128.988 121.102 128.747 121.352C128.506 121.599 128.207 121.793 127.852 121.932C127.497 122.068 127.098 122.136 126.655 122.136ZM130.699 122V115.455H131.67V116.443H131.739C131.858 116.119 132.074 115.857 132.386 115.655C132.699 115.453 133.051 115.352 133.443 115.352C133.517 115.352 133.609 115.354 133.72 115.357C133.831 115.359 133.915 115.364 133.971 115.369V116.392C133.937 116.384 133.859 116.371 133.737 116.354C133.618 116.334 133.491 116.324 133.358 116.324C133.04 116.324 132.756 116.391 132.506 116.524C132.258 116.655 132.062 116.837 131.917 117.07C131.775 117.3 131.704 117.562 131.704 117.858V122H130.699ZM140.993 115.455V116.307H137.601V115.455H140.993ZM138.59 113.886H139.595V120.125C139.595 120.409 139.637 120.622 139.719 120.764C139.804 120.903 139.912 120.997 140.043 121.045C140.176 121.091 140.317 121.114 140.465 121.114C140.576 121.114 140.666 121.108 140.737 121.097C140.809 121.082 140.865 121.071 140.908 121.062L141.112 121.966C141.044 121.991 140.949 122.017 140.827 122.043C140.705 122.071 140.55 122.085 140.362 122.085C140.078 122.085 139.8 122.024 139.527 121.902C139.257 121.78 139.033 121.594 138.854 121.344C138.678 121.094 138.59 120.778 138.59 120.398V113.886ZM143.456 118.062V122H142.451V113.273H143.456V116.477H143.541C143.695 116.139 143.925 115.871 144.232 115.672C144.541 115.47 144.953 115.369 145.468 115.369C145.914 115.369 146.304 115.459 146.64 115.638C146.975 115.814 147.235 116.085 147.419 116.452C147.607 116.815 147.701 117.278 147.701 117.841V122H146.695V117.909C146.695 117.389 146.56 116.987 146.29 116.703C146.023 116.416 145.652 116.273 145.178 116.273C144.848 116.273 144.553 116.342 144.291 116.482C144.033 116.621 143.828 116.824 143.678 117.091C143.53 117.358 143.456 117.682 143.456 118.062ZM149.344 122V115.455H150.35V122H149.344ZM149.856 114.364C149.66 114.364 149.491 114.297 149.349 114.163C149.209 114.03 149.14 113.869 149.14 113.682C149.14 113.494 149.209 113.334 149.349 113.2C149.491 113.067 149.66 113 149.856 113C150.052 113 150.219 113.067 150.359 113.2C150.501 113.334 150.572 113.494 150.572 113.682C150.572 113.869 150.501 114.03 150.359 114.163C150.219 114.297 150.052 114.364 149.856 114.364ZM156.632 116.92L155.729 117.176C155.672 117.026 155.588 116.879 155.478 116.737C155.37 116.592 155.222 116.473 155.034 116.379C154.847 116.286 154.607 116.239 154.314 116.239C153.914 116.239 153.58 116.331 153.313 116.516C153.049 116.697 152.917 116.929 152.917 117.21C152.917 117.46 153.007 117.658 153.189 117.803C153.371 117.947 153.655 118.068 154.042 118.165L155.013 118.403C155.598 118.545 156.034 118.763 156.321 119.055C156.608 119.345 156.752 119.719 156.752 120.176C156.752 120.551 156.644 120.886 156.428 121.182C156.215 121.477 155.917 121.71 155.533 121.881C155.149 122.051 154.703 122.136 154.195 122.136C153.527 122.136 152.975 121.991 152.537 121.702C152.1 121.412 151.823 120.989 151.706 120.432L152.661 120.193C152.752 120.545 152.924 120.81 153.176 120.986C153.432 121.162 153.766 121.25 154.178 121.25C154.647 121.25 155.019 121.151 155.294 120.952C155.573 120.75 155.712 120.509 155.712 120.227C155.712 120 155.632 119.81 155.473 119.656C155.314 119.5 155.07 119.384 154.74 119.307L153.649 119.051C153.05 118.909 152.61 118.689 152.328 118.391C152.05 118.089 151.911 117.713 151.911 117.261C151.911 116.892 152.015 116.565 152.222 116.281C152.432 115.997 152.718 115.774 153.078 115.612C153.442 115.45 153.854 115.369 154.314 115.369C154.962 115.369 155.471 115.511 155.84 115.795C156.212 116.08 156.476 116.455 156.632 116.92ZM163.72 122.136C163.175 122.136 162.693 121.999 162.276 121.723C161.858 121.445 161.531 121.053 161.295 120.547C161.06 120.038 160.942 119.438 160.942 118.744C160.942 118.057 161.06 117.46 161.295 116.955C161.531 116.449 161.859 116.058 162.28 115.783C162.7 115.507 163.186 115.369 163.737 115.369C164.163 115.369 164.5 115.44 164.747 115.582C164.997 115.722 165.188 115.881 165.318 116.06C165.452 116.236 165.555 116.381 165.629 116.494H165.715V113.273H166.72V122H165.749V120.994H165.629C165.555 121.114 165.45 121.264 165.314 121.446C165.178 121.625 164.983 121.786 164.73 121.928C164.477 122.067 164.141 122.136 163.72 122.136ZM163.857 121.233C164.26 121.233 164.601 121.128 164.879 120.918C165.158 120.705 165.369 120.411 165.514 120.036C165.659 119.658 165.732 119.222 165.732 118.727C165.732 118.239 165.661 117.811 165.518 117.445C165.376 117.075 165.166 116.788 164.888 116.584C164.609 116.376 164.266 116.273 163.857 116.273C163.43 116.273 163.075 116.382 162.791 116.601C162.51 116.817 162.298 117.111 162.156 117.483C162.017 117.852 161.947 118.267 161.947 118.727C161.947 119.193 162.018 119.616 162.161 119.997C162.305 120.375 162.518 120.676 162.8 120.901C163.084 121.122 163.436 121.233 163.857 121.233ZM171.165 122.136C170.574 122.136 170.055 121.996 169.609 121.714C169.166 121.433 168.82 121.04 168.57 120.534C168.322 120.028 168.199 119.437 168.199 118.761C168.199 118.08 168.322 117.484 168.57 116.976C168.82 116.467 169.166 116.072 169.609 115.791C170.055 115.51 170.574 115.369 171.165 115.369C171.756 115.369 172.273 115.51 172.716 115.791C173.162 116.072 173.509 116.467 173.756 116.976C174.006 117.484 174.131 118.08 174.131 118.761C174.131 119.437 174.006 120.028 173.756 120.534C173.509 121.04 173.162 121.433 172.716 121.714C172.273 121.996 171.756 122.136 171.165 122.136ZM171.165 121.233C171.614 121.233 171.983 121.118 172.273 120.888C172.563 120.658 172.777 120.355 172.916 119.98C173.055 119.605 173.125 119.199 173.125 118.761C173.125 118.324 173.055 117.916 172.916 117.538C172.777 117.161 172.563 116.855 172.273 116.622C171.983 116.389 171.614 116.273 171.165 116.273C170.716 116.273 170.347 116.389 170.057 116.622C169.767 116.855 169.553 117.161 169.413 117.538C169.274 117.916 169.205 118.324 169.205 118.761C169.205 119.199 169.274 119.605 169.413 119.98C169.553 120.355 169.767 120.658 170.057 120.888C170.347 121.118 170.716 121.233 171.165 121.233ZM178.129 122.136C177.515 122.136 176.987 121.991 176.544 121.702C176.101 121.412 175.76 121.013 175.521 120.504C175.282 119.996 175.163 119.415 175.163 118.761C175.163 118.097 175.285 117.51 175.53 117.001C175.777 116.49 176.12 116.091 176.561 115.804C177.004 115.514 177.521 115.369 178.112 115.369C178.572 115.369 178.987 115.455 179.356 115.625C179.726 115.795 180.028 116.034 180.264 116.341C180.5 116.648 180.646 117.006 180.703 117.415H179.697C179.62 117.116 179.45 116.852 179.186 116.622C178.924 116.389 178.572 116.273 178.129 116.273C177.737 116.273 177.393 116.375 177.098 116.58C176.805 116.781 176.576 117.067 176.412 117.436C176.25 117.803 176.169 118.233 176.169 118.727C176.169 119.233 176.248 119.673 176.407 120.048C176.569 120.423 176.797 120.714 177.089 120.922C177.385 121.129 177.731 121.233 178.129 121.233C178.39 121.233 178.628 121.188 178.841 121.097C179.054 121.006 179.234 120.875 179.382 120.705C179.53 120.534 179.635 120.33 179.697 120.091H180.703C180.646 120.477 180.505 120.825 180.281 121.135C180.059 121.442 179.765 121.686 179.399 121.868C179.035 122.047 178.612 122.136 178.129 122.136ZM186.102 119.324V115.455H187.108V122H186.102V120.892H186.034C185.88 121.224 185.642 121.507 185.318 121.74C184.994 121.97 184.585 122.085 184.091 122.085C183.682 122.085 183.318 121.996 183 121.817C182.682 121.635 182.432 121.362 182.25 120.999C182.068 120.632 181.977 120.17 181.977 119.614V115.455H182.983V119.545C182.983 120.023 183.116 120.403 183.383 120.688C183.653 120.972 183.997 121.114 184.415 121.114C184.665 121.114 184.919 121.05 185.177 120.922C185.439 120.794 185.657 120.598 185.834 120.334C186.013 120.07 186.102 119.733 186.102 119.324ZM188.754 122V115.455H189.725V116.477H189.81C189.947 116.128 190.167 115.857 190.471 115.663C190.775 115.467 191.14 115.369 191.566 115.369C191.998 115.369 192.357 115.467 192.644 115.663C192.934 115.857 193.16 116.128 193.322 116.477H193.39C193.558 116.139 193.809 115.871 194.144 115.672C194.48 115.47 194.882 115.369 195.35 115.369C195.935 115.369 196.414 115.553 196.786 115.919C197.159 116.283 197.345 116.849 197.345 117.619V122H196.339V117.619C196.339 117.136 196.207 116.791 195.943 116.584C195.678 116.376 195.367 116.273 195.009 116.273C194.549 116.273 194.193 116.412 193.94 116.69C193.687 116.966 193.56 117.315 193.56 117.739V122H192.538V117.517C192.538 117.145 192.417 116.845 192.176 116.618C191.934 116.388 191.623 116.273 191.242 116.273C190.981 116.273 190.737 116.342 190.509 116.482C190.285 116.621 190.103 116.814 189.964 117.061C189.828 117.305 189.759 117.588 189.759 117.909V122H188.754ZM201.732 122.136C201.101 122.136 200.557 121.997 200.1 121.719C199.645 121.438 199.294 121.045 199.047 120.543C198.803 120.037 198.681 119.449 198.681 118.778C198.681 118.108 198.803 117.517 199.047 117.006C199.294 116.491 199.638 116.091 200.078 115.804C200.521 115.514 201.039 115.369 201.629 115.369C201.97 115.369 202.307 115.426 202.639 115.54C202.972 115.653 203.274 115.838 203.547 116.094C203.82 116.347 204.037 116.682 204.199 117.099C204.361 117.517 204.442 118.031 204.442 118.642V119.068H199.396V118.199H203.419C203.419 117.83 203.345 117.5 203.198 117.21C203.053 116.92 202.845 116.692 202.575 116.524C202.308 116.357 201.993 116.273 201.629 116.273C201.229 116.273 200.882 116.372 200.59 116.571C200.3 116.767 200.077 117.023 199.921 117.338C199.764 117.653 199.686 117.991 199.686 118.352V118.932C199.686 119.426 199.771 119.845 199.942 120.189C200.115 120.53 200.355 120.79 200.662 120.969C200.969 121.145 201.325 121.233 201.732 121.233C201.996 121.233 202.235 121.196 202.448 121.122C202.664 121.045 202.85 120.932 203.006 120.781C203.162 120.628 203.283 120.437 203.368 120.21L204.34 120.483C204.237 120.812 204.065 121.102 203.824 121.352C203.583 121.599 203.284 121.793 202.929 121.932C202.574 122.068 202.175 122.136 201.732 122.136ZM206.781 118.062V122H205.776V115.455H206.747V116.477H206.833C206.986 116.145 207.219 115.878 207.531 115.676C207.844 115.472 208.247 115.369 208.742 115.369C209.185 115.369 209.573 115.46 209.905 115.642C210.237 115.821 210.496 116.094 210.681 116.46C210.865 116.824 210.958 117.284 210.958 117.841V122H209.952V117.909C209.952 117.395 209.818 116.994 209.551 116.707C209.284 116.418 208.918 116.273 208.452 116.273C208.131 116.273 207.844 116.342 207.591 116.482C207.341 116.621 207.144 116.824 206.999 117.091C206.854 117.358 206.781 117.682 206.781 118.062ZM215.446 115.455V116.307H212.054V115.455H215.446ZM213.042 113.886H214.048V120.125C214.048 120.409 214.089 120.622 214.172 120.764C214.257 120.903 214.365 120.997 214.496 121.045C214.629 121.091 214.77 121.114 214.917 121.114C215.028 121.114 215.119 121.108 215.19 121.097C215.261 121.082 215.318 121.071 215.361 121.062L215.565 121.966C215.497 121.991 215.402 122.017 215.28 122.043C215.158 122.071 215.003 122.085 214.815 122.085C214.531 122.085 214.253 122.024 213.98 121.902C213.71 121.78 213.486 121.594 213.307 121.344C213.131 121.094 213.042 120.778 213.042 120.398V113.886Z" fill="white"/>
<rect x="68" y="208" width="290" height="33" rx="15" fill="#FF5D00"/>
<path d="M192.403 233.325C191.661 233.325 190.965 233.271 190.315 233.163C189.674 233.054 189.09 232.921 188.565 232.762C188.049 232.596 187.603 232.429 187.228 232.262L186.94 229.162C187.59 229.504 188.361 229.812 189.253 230.087C190.144 230.354 191.094 230.487 192.103 230.487C193.169 230.487 193.94 230.333 194.415 230.025C194.89 229.717 195.128 229.242 195.128 228.6V228.462C195.128 228.046 195.024 227.704 194.815 227.437C194.615 227.162 194.278 226.921 193.803 226.712C193.328 226.504 192.682 226.292 191.865 226.075C190.715 225.758 189.769 225.4 189.028 225C188.294 224.592 187.753 224.087 187.403 223.487C187.053 222.879 186.878 222.117 186.878 221.2V221.05C186.878 219.65 187.349 218.575 188.29 217.825C189.24 217.075 190.64 216.7 192.49 216.7C193.64 216.7 194.628 216.804 195.453 217.012C196.278 217.221 196.969 217.462 197.528 217.737L197.815 220.625C197.19 220.292 196.474 220.017 195.665 219.8C194.865 219.575 193.99 219.462 193.04 219.462C192.332 219.462 191.769 219.529 191.353 219.662C190.944 219.796 190.649 219.992 190.465 220.25C190.29 220.508 190.203 220.821 190.203 221.187V221.225C190.203 221.6 190.294 221.925 190.478 222.2C190.669 222.475 191.007 222.729 191.49 222.962C191.974 223.187 192.661 223.421 193.553 223.662C194.686 223.979 195.611 224.321 196.328 224.687C197.053 225.054 197.59 225.529 197.94 226.113C198.29 226.696 198.465 227.467 198.465 228.425V228.65C198.465 230.192 197.961 231.358 196.953 232.15C195.953 232.933 194.436 233.325 192.403 233.325ZM206.349 233.3C204.249 233.3 202.686 232.817 201.661 231.85C200.636 230.883 200.124 229.483 200.124 227.65V226.05C200.124 224.233 200.603 222.837 201.561 221.862C202.52 220.887 203.911 220.4 205.736 220.4C206.97 220.4 207.999 220.617 208.824 221.05C209.649 221.483 210.265 222.1 210.674 222.9C211.09 223.692 211.299 224.642 211.299 225.75V226.187C211.299 226.487 211.282 226.796 211.249 227.112C211.224 227.421 211.186 227.712 211.136 227.987H208.236C208.261 227.529 208.274 227.096 208.274 226.688C208.282 226.271 208.286 225.896 208.286 225.562C208.286 224.987 208.195 224.5 208.011 224.1C207.828 223.692 207.549 223.383 207.174 223.175C206.799 222.967 206.32 222.862 205.736 222.862C204.878 222.862 204.245 223.1 203.836 223.575C203.428 224.05 203.224 224.725 203.224 225.6V226.737L203.236 227.1V228.062C203.236 228.446 203.295 228.8 203.411 229.125C203.536 229.45 203.74 229.733 204.024 229.975C204.307 230.208 204.682 230.392 205.149 230.525C205.624 230.658 206.215 230.725 206.924 230.725C207.69 230.725 208.42 230.642 209.111 230.475C209.811 230.3 210.474 230.067 211.099 229.775L210.824 232.3C210.265 232.608 209.607 232.85 208.849 233.025C208.099 233.208 207.265 233.3 206.349 233.3ZM201.824 227.987V225.862H210.486V227.987H201.824ZM221.342 233V225.637C221.342 225.121 221.271 224.675 221.129 224.3C220.996 223.925 220.771 223.633 220.454 223.425C220.137 223.217 219.704 223.112 219.154 223.112C218.671 223.112 218.246 223.2 217.879 223.375C217.521 223.55 217.225 223.787 216.992 224.087C216.767 224.379 216.596 224.712 216.479 225.087L215.979 223.337H216.579C216.712 222.796 216.933 222.308 217.242 221.875C217.558 221.442 217.983 221.1 218.517 220.85C219.058 220.592 219.733 220.462 220.542 220.462C221.483 220.462 222.246 220.642 222.829 221C223.412 221.35 223.842 221.875 224.117 222.575C224.4 223.275 224.542 224.142 224.542 225.175V233H221.342ZM213.354 233V220.737H216.554L216.429 223.725L216.554 223.987V233H213.354ZM231 233.288C229.559 233.288 228.463 232.821 227.713 231.887C226.963 230.954 226.588 229.579 226.588 227.762V226.075C226.588 224.233 226.967 222.837 227.725 221.887C228.484 220.937 229.613 220.462 231.113 220.462C231.846 220.462 232.463 220.579 232.963 220.812C233.471 221.046 233.879 221.379 234.188 221.812C234.504 222.246 234.725 222.754 234.85 223.337H235.788L234.975 225.712C234.959 225.137 234.838 224.654 234.613 224.262C234.396 223.862 234.092 223.558 233.7 223.35C233.309 223.142 232.846 223.037 232.313 223.037C231.504 223.037 230.884 223.271 230.45 223.737C230.025 224.204 229.813 224.9 229.813 225.825V227.85C229.813 228.767 230.025 229.458 230.45 229.925C230.884 230.392 231.513 230.625 232.338 230.625C232.804 230.625 233.221 230.537 233.588 230.362C233.954 230.187 234.259 229.95 234.5 229.65C234.75 229.342 234.929 228.996 235.038 228.612L235.8 230.4H234.9C234.767 230.933 234.55 231.421 234.25 231.862C233.95 232.296 233.538 232.642 233.013 232.9C232.488 233.158 231.817 233.288 231 233.288ZM234.925 233L235.038 230L234.975 229.287V224.275L234.988 223.762L234.925 220.25V216.475H238.125V233H234.925Z" fill="white"/>
<rect x="68" y="153" width="290" height="37" rx="15" fill="white"/>
<defs>
<filter id="filter0_d_943_1802" x="0" y="0" width="428" height="280" filterUnits="userSpaceOnUse" color-interpolation-filters="sRGB">
<feFlood flood-opacity="0" result="BackgroundImageFix"/>
<feColorMatrix in="SourceAlpha" type="matrix" values="0 0 0 0 0 0 0 0 0 0 0 0 0 0 0 0 0 0 127 0" result="hardAlpha"/>
<feOffset dx="1" dy="1"/>
<feGaussianBlur stdDeviation="5"/>
<feComposite in2="hardAlpha" operator="out"/>
<feColorMatrix type="matrix" values="0 0 0 0 1 0 0 0 0 1 0 0 0 0 1 0 0 0 1 0"/>
<feBlend mode="normal" in2="BackgroundImageFix" result="effect1_dropShadow_943_1802"/>
<feBlend mode="normal" in="SourceGraphic" in2="effect1_dropShadow_943_1802" result="shape"/>
</filter>
</defs>
</svg>
