<svg width="404" height="122" viewBox="0 0 404 122" fill="none" xmlns="http://www.w3.org/2000/svg">
<rect width="404" height="55" rx="15" fill="#FF5D00"/>
<path d="M104.521 36V20.6375H107.809V36H104.521ZM99.9711 22.7625V20.025H112.334V22.7625H99.9711ZM116.503 28.875L115.69 26.7375H116.465C116.69 25.7458 117.098 24.9667 117.69 24.4C118.282 23.8333 119.103 23.55 120.153 23.55C120.369 23.55 120.565 23.5667 120.74 23.6C120.915 23.625 121.073 23.6583 121.215 23.7L121.39 26.9C121.207 26.8417 120.994 26.8 120.753 26.775C120.511 26.7417 120.257 26.725 119.99 26.725C119.14 26.725 118.415 26.9125 117.815 27.2875C117.223 27.6625 116.786 28.1917 116.503 28.875ZM113.39 36V23.7375H116.44L116.303 27.5L116.59 27.6125V36H113.39ZM129.694 36L129.806 33L129.719 32.725V28.8875L129.706 28.3375C129.706 27.5375 129.485 26.95 129.044 26.575C128.61 26.2 127.898 26.0125 126.906 26.0125C126.064 26.0125 125.273 26.125 124.531 26.35C123.798 26.5667 123.119 26.8208 122.494 27.1125L122.769 24.5625C123.135 24.3708 123.552 24.1917 124.019 24.025C124.494 23.85 125.023 23.7083 125.606 23.6C126.189 23.4917 126.819 23.4375 127.494 23.4375C128.494 23.4375 129.339 23.5583 130.031 23.8C130.723 24.0333 131.273 24.3708 131.681 24.8125C132.098 25.2542 132.398 25.7833 132.581 26.4C132.764 27.0083 132.856 27.6833 132.856 28.425V36H129.694ZM125.681 36.2875C124.464 36.2875 123.535 35.9833 122.894 35.375C122.26 34.7667 121.944 33.9 121.944 32.775V32.425C121.944 31.2333 122.31 30.3542 123.044 29.7875C123.777 29.2125 124.939 28.8167 126.531 28.6L130.006 28.125L130.194 30.1875L126.994 30.65C126.294 30.7417 125.794 30.9083 125.494 31.15C125.202 31.3917 125.056 31.7458 125.056 32.2125V32.3375C125.056 32.7958 125.198 33.1542 125.481 33.4125C125.773 33.6625 126.227 33.7875 126.844 33.7875C127.394 33.7875 127.864 33.7 128.256 33.525C128.648 33.35 128.969 33.1208 129.219 32.8375C129.477 32.5458 129.66 32.2208 129.769 31.8625L130.219 33.45H129.669C129.535 33.975 129.319 34.4542 129.019 34.8875C128.727 35.3125 128.314 35.6542 127.781 35.9125C127.248 36.1625 126.548 36.2875 125.681 36.2875ZM143.276 36V28.6375C143.276 28.1208 143.205 27.675 143.063 27.3C142.93 26.925 142.705 26.6333 142.388 26.425C142.072 26.2167 141.638 26.1125 141.088 26.1125C140.605 26.1125 140.18 26.2 139.813 26.375C139.455 26.55 139.159 26.7875 138.926 27.0875C138.701 27.3792 138.53 27.7125 138.413 28.0875L137.913 26.3375H138.513C138.647 25.7958 138.867 25.3083 139.176 24.875C139.492 24.4417 139.917 24.1 140.451 23.85C140.992 23.5917 141.667 23.4625 142.476 23.4625C143.417 23.4625 144.18 23.6417 144.763 24C145.347 24.35 145.776 24.875 146.051 25.575C146.334 26.275 146.476 27.1417 146.476 28.175V36H143.276ZM135.288 36V23.7375H138.488L138.363 26.725L138.488 26.9875V36H135.288ZM153.147 36.3C152.164 36.3 151.289 36.2042 150.522 36.0125C149.764 35.8292 149.118 35.6208 148.584 35.3875L148.297 32.6125C148.93 32.9042 149.626 33.1583 150.384 33.375C151.151 33.5917 151.993 33.7 152.909 33.7C153.709 33.7 154.289 33.6 154.647 33.4C155.005 33.1917 155.184 32.8833 155.184 32.475V32.4C155.184 32.125 155.101 31.9 154.934 31.725C154.776 31.55 154.493 31.3917 154.084 31.25C153.676 31.1 153.101 30.9417 152.359 30.775C151.334 30.5333 150.522 30.2542 149.922 29.9375C149.33 29.6125 148.905 29.2167 148.647 28.75C148.389 28.275 148.259 27.7083 148.259 27.05V26.9375C148.259 25.7792 148.672 24.9083 149.497 24.325C150.322 23.7333 151.543 23.4375 153.159 23.4375C154.118 23.4375 154.964 23.5333 155.697 23.725C156.439 23.9083 157.055 24.1292 157.547 24.3875L157.834 26.9375C157.251 26.6625 156.597 26.4333 155.872 26.25C155.147 26.0583 154.368 25.9625 153.534 25.9625C152.993 25.9625 152.564 26.0083 152.247 26.1C151.939 26.1833 151.718 26.3042 151.584 26.4625C151.451 26.6208 151.384 26.8125 151.384 27.0375V27.1C151.384 27.35 151.455 27.5667 151.597 27.75C151.747 27.9333 152.018 28.1 152.409 28.25C152.801 28.3917 153.351 28.5458 154.059 28.7125C155.093 28.9292 155.922 29.1833 156.547 29.475C157.172 29.7667 157.626 30.1417 157.909 30.6C158.193 31.05 158.334 31.6417 158.334 32.375V32.525C158.334 33.7917 157.905 34.7375 157.047 35.3625C156.189 35.9875 154.889 36.3 153.147 36.3ZM164.355 19.0875C165.005 19.0875 165.605 19.1417 166.155 19.25C166.705 19.3583 167.193 19.4917 167.618 19.65L167.905 22.05C167.547 21.9417 167.172 21.8542 166.78 21.7875C166.397 21.7125 165.972 21.675 165.505 21.675C164.947 21.675 164.505 21.7375 164.18 21.8625C163.864 21.9875 163.639 22.1667 163.505 22.4C163.372 22.6333 163.305 22.9083 163.305 23.225V23.2625C163.305 23.4875 163.339 23.7 163.405 23.9C163.472 24.1 163.551 24.2792 163.643 24.4375L161.555 24.5125V24.175C161.172 23.9917 160.847 23.7208 160.58 23.3625C160.314 23.0042 160.18 22.5583 160.18 22.025V21.9625C160.18 21.0792 160.518 20.3792 161.193 19.8625C161.876 19.3458 162.93 19.0875 164.355 19.0875ZM160.605 36V25.175H163.793V36H160.605ZM158.83 26.8V24.2625L161.93 24.2875L163.18 24.2625H167.88L167.605 26.8H158.83ZM174.74 36.3C172.64 36.3 171.078 35.8167 170.053 34.85C169.028 33.8833 168.515 32.4833 168.515 30.65V29.05C168.515 27.2333 168.994 25.8375 169.953 24.8625C170.911 23.8875 172.303 23.4 174.128 23.4C175.361 23.4 176.39 23.6167 177.215 24.05C178.04 24.4833 178.657 25.1 179.065 25.9C179.482 26.6917 179.69 27.6417 179.69 28.75V29.1875C179.69 29.4875 179.673 29.7958 179.64 30.1125C179.615 30.4208 179.578 30.7125 179.528 30.9875H176.628C176.653 30.5292 176.665 30.0958 176.665 29.6875C176.673 29.2708 176.678 28.8958 176.678 28.5625C176.678 27.9875 176.586 27.5 176.403 27.1C176.219 26.6917 175.94 26.3833 175.565 26.175C175.19 25.9667 174.711 25.8625 174.128 25.8625C173.269 25.8625 172.636 26.1 172.228 26.575C171.819 27.05 171.615 27.725 171.615 28.6V29.7375L171.628 30.1V31.0625C171.628 31.4458 171.686 31.8 171.803 32.125C171.928 32.45 172.132 32.7333 172.415 32.975C172.698 33.2083 173.073 33.3917 173.54 33.525C174.015 33.6583 174.607 33.725 175.315 33.725C176.082 33.725 176.811 33.6417 177.503 33.475C178.203 33.3 178.865 33.0667 179.49 32.775L179.215 35.3C178.657 35.6083 177.998 35.85 177.24 36.025C176.49 36.2083 175.657 36.3 174.74 36.3ZM170.215 30.9875V28.8625H178.878V30.9875H170.215ZM184.858 28.875L184.045 26.7375H184.82C185.045 25.7458 185.454 24.9667 186.045 24.4C186.637 23.8333 187.458 23.55 188.508 23.55C188.725 23.55 188.92 23.5667 189.095 23.6C189.27 23.625 189.429 23.6583 189.57 23.7L189.745 26.9C189.562 26.8417 189.35 26.8 189.108 26.775C188.866 26.7417 188.612 26.725 188.345 26.725C187.495 26.725 186.77 26.9125 186.17 27.2875C185.579 27.6625 185.141 28.1917 184.858 28.875ZM181.745 36V23.7375H184.795L184.658 27.5L184.945 27.6125V36H181.745ZM198.648 36V33.25H202.273C203.414 33.25 204.269 32.9417 204.835 32.325C205.41 31.7 205.698 30.8083 205.698 29.65V26.3375C205.698 25.1792 205.41 24.2917 204.835 23.675C204.269 23.0583 203.414 22.75 202.273 22.75H198.635V20.025H202.385C204.585 20.025 206.239 20.5667 207.348 21.65C208.456 22.7333 209.01 24.2917 209.01 26.325V29.6625C209.01 31.7042 208.456 33.2708 207.348 34.3625C206.248 35.4542 204.594 36 202.385 36H198.648ZM196.36 36V20.025H199.598V36H196.36ZM216.585 36.3375C214.685 36.3375 213.243 35.85 212.26 34.875C211.285 33.9 210.797 32.5125 210.797 30.7125V29.05C210.797 27.2417 211.285 25.85 212.26 24.875C213.243 23.8917 214.685 23.4 216.585 23.4C218.477 23.4 219.91 23.8917 220.885 24.875C221.86 25.85 222.347 27.2417 222.347 29.05V30.7125C222.347 32.5125 221.86 33.9 220.885 34.875C219.918 35.85 218.485 36.3375 216.585 36.3375ZM216.585 33.775C217.418 33.775 218.052 33.525 218.485 33.025C218.927 32.525 219.147 31.8083 219.147 30.875V28.8875C219.147 27.9375 218.927 27.2125 218.485 26.7125C218.052 26.2042 217.418 25.95 216.585 25.95C215.743 25.95 215.102 26.2042 214.66 26.7125C214.227 27.2125 214.01 27.9375 214.01 28.8875V30.875C214.01 31.8083 214.227 32.525 214.66 33.025C215.102 33.525 215.743 33.775 216.585 33.775ZM229.604 36.3125C227.713 36.3125 226.308 35.8125 225.392 34.8125C224.483 33.8125 224.029 32.4083 224.029 30.6V29.1C224.029 27.3 224.488 25.9042 225.404 24.9125C226.321 23.9208 227.721 23.425 229.604 23.425C230.096 23.425 230.554 23.4667 230.979 23.55C231.413 23.625 231.804 23.7292 232.154 23.8625C232.513 23.9958 232.825 24.1375 233.092 24.2875L233.354 26.975C232.946 26.7167 232.488 26.5 231.979 26.325C231.479 26.15 230.9 26.0625 230.242 26.0625C229.208 26.0625 228.45 26.3292 227.967 26.8625C227.492 27.3875 227.254 28.1542 227.254 29.1625V30.4875C227.254 31.4875 227.5 32.2583 227.992 32.8C228.492 33.3417 229.258 33.6125 230.292 33.6125C230.95 33.6125 231.533 33.5292 232.042 33.3625C232.55 33.1875 233.025 32.975 233.467 32.725L233.204 35.425C232.796 35.6583 232.283 35.8625 231.667 36.0375C231.05 36.2208 230.363 36.3125 229.604 36.3125ZM238.308 23.7375V31.1125C238.308 31.6208 238.375 32.0667 238.508 32.45C238.65 32.825 238.879 33.1167 239.196 33.325C239.521 33.525 239.954 33.625 240.496 33.625C240.987 33.625 241.412 33.5375 241.771 33.3625C242.129 33.1875 242.425 32.9542 242.658 32.6625C242.892 32.3625 243.062 32.0292 243.171 31.6625L243.671 33.4H243.071C242.937 33.9333 242.712 34.4208 242.396 34.8625C242.087 35.2958 241.662 35.6417 241.121 35.9C240.587 36.1583 239.917 36.2875 239.108 36.2875C238.175 36.2875 237.412 36.1083 236.821 35.75C236.237 35.3917 235.804 34.8625 235.521 34.1625C235.246 33.4625 235.108 32.6 235.108 31.575V23.7375H238.308ZM246.296 23.7375V36H243.108L243.221 33.025L243.096 32.7625V23.7375H246.296ZM264.017 36V28.55C264.017 28.05 263.954 27.6208 263.829 27.2625C263.704 26.8958 263.496 26.6125 263.204 26.4125C262.921 26.2125 262.534 26.1125 262.042 26.1125C261.592 26.1125 261.2 26.2 260.867 26.375C260.534 26.55 260.263 26.7875 260.054 27.0875C259.846 27.3792 259.692 27.7125 259.592 28.0875L259.242 26.3375H259.567C259.7 25.8125 259.917 25.3333 260.217 24.9C260.517 24.4583 260.925 24.1083 261.442 23.85C261.967 23.5917 262.629 23.4625 263.429 23.4625C264.321 23.4625 265.042 23.6375 265.592 23.9875C266.15 24.3292 266.563 24.8458 266.829 25.5375C267.096 26.2208 267.229 27.0708 267.229 28.0875V36H264.017ZM248.904 36V23.7375H252.104L251.979 26.85L252.104 26.9875V36H248.904ZM256.467 36V28.55C256.467 28.05 256.404 27.6208 256.279 27.2625C256.154 26.8958 255.946 26.6125 255.654 26.4125C255.371 26.2125 254.984 26.1125 254.492 26.1125C254.034 26.1125 253.638 26.2 253.304 26.375C252.979 26.55 252.709 26.7875 252.492 27.0875C252.284 27.3792 252.129 27.7125 252.029 28.0875L251.529 26.3375H252.129C252.254 25.7958 252.463 25.3083 252.754 24.875C253.054 24.4417 253.459 24.1 253.967 23.85C254.475 23.5917 255.109 23.4625 255.867 23.4625C257.009 23.4625 257.867 23.7542 258.442 24.3375C259.025 24.9208 259.392 25.7708 259.542 26.8875C259.575 27.0542 259.604 27.25 259.629 27.475C259.654 27.6917 259.667 27.8958 259.667 28.0875V36H256.467ZM275.467 36.3C273.367 36.3 271.804 35.8167 270.779 34.85C269.754 33.8833 269.242 32.4833 269.242 30.65V29.05C269.242 27.2333 269.721 25.8375 270.679 24.8625C271.638 23.8875 273.029 23.4 274.854 23.4C276.088 23.4 277.117 23.6167 277.942 24.05C278.767 24.4833 279.384 25.1 279.792 25.9C280.209 26.6917 280.417 27.6417 280.417 28.75V29.1875C280.417 29.4875 280.4 29.7958 280.367 30.1125C280.342 30.4208 280.304 30.7125 280.254 30.9875H277.354C277.379 30.5292 277.392 30.0958 277.392 29.6875C277.4 29.2708 277.404 28.8958 277.404 28.5625C277.404 27.9875 277.313 27.5 277.129 27.1C276.946 26.6917 276.667 26.3833 276.292 26.175C275.917 25.9667 275.438 25.8625 274.854 25.8625C273.996 25.8625 273.363 26.1 272.954 26.575C272.546 27.05 272.342 27.725 272.342 28.6V29.7375L272.354 30.1V31.0625C272.354 31.4458 272.413 31.8 272.529 32.125C272.654 32.45 272.859 32.7333 273.142 32.975C273.425 33.2083 273.8 33.3917 274.267 33.525C274.742 33.6583 275.334 33.725 276.042 33.725C276.809 33.725 277.538 33.6417 278.229 33.475C278.929 33.3 279.592 33.0667 280.217 32.775L279.942 35.3C279.384 35.6083 278.725 35.85 277.967 36.025C277.217 36.2083 276.384 36.3 275.467 36.3ZM270.942 30.9875V28.8625H279.604V30.9875H270.942ZM290.46 36V28.6375C290.46 28.1208 290.389 27.675 290.247 27.3C290.114 26.925 289.889 26.6333 289.572 26.425C289.256 26.2167 288.822 26.1125 288.272 26.1125C287.789 26.1125 287.364 26.2 286.997 26.375C286.639 26.55 286.343 26.7875 286.11 27.0875C285.885 27.3792 285.714 27.7125 285.597 28.0875L285.097 26.3375H285.697C285.831 25.7958 286.051 25.3083 286.36 24.875C286.676 24.4417 287.101 24.1 287.635 23.85C288.176 23.5917 288.851 23.4625 289.66 23.4625C290.601 23.4625 291.364 23.6417 291.947 24C292.531 24.35 292.96 24.875 293.235 25.575C293.518 26.275 293.66 27.1417 293.66 28.175V36H290.46ZM282.472 36V23.7375H285.672L285.547 26.725L285.672 26.9875V36H282.472ZM300.845 36.2625C299.803 36.2625 298.97 36.1083 298.345 35.8C297.728 35.4833 297.282 35.0083 297.007 34.375C296.732 33.7417 296.595 32.9625 296.595 32.0375V24.8875H299.77V31.5625C299.77 32.2292 299.92 32.7208 300.22 33.0375C300.528 33.3458 301.066 33.5 301.832 33.5C302.282 33.5 302.716 33.4542 303.132 33.3625C303.549 33.2625 303.932 33.1333 304.282 32.975L304.007 35.65C303.591 35.8417 303.111 35.9917 302.57 36.1C302.036 36.2083 301.461 36.2625 300.845 36.2625ZM294.82 26.3625V23.8375H304.17L303.895 26.3625H294.82ZM296.632 24.075L296.62 20.825L299.807 20.5L299.682 24.075H296.632Z" fill="white"/>
<path fill-rule="evenodd" clip-rule="evenodd" d="M351 32.9375C352.829 32.9375 354.312 34.2667 354.312 35.9062V44.8125C354.312 46.4521 352.829 47.7812 351 47.7812C349.171 47.7812 347.688 46.4521 347.688 44.8125V35.9062C347.688 34.2667 349.171 32.9375 351 32.9375ZM322.893 43.3718C324.186 42.2125 326.283 42.2125 327.577 43.3718L334.604 49.6695C335.898 50.8289 335.898 52.7086 334.604 53.8679C333.31 55.0273 331.213 55.0273 329.919 53.8679L322.893 47.5703C321.599 46.4109 321.599 44.5312 322.893 43.3718ZM379.107 43.3718C380.401 44.5312 380.401 46.4109 379.107 47.5703L372.081 53.8679C370.787 55.0273 368.69 55.0273 367.396 53.8679C366.102 52.7086 366.102 50.8289 367.396 49.6695L374.423 43.3718C375.717 42.2125 377.814 42.2125 379.107 43.3718ZM349.005 61.1675C350.383 60.8368 351.841 61.333 352.627 62.3993L375.714 93.737C376.452 94.739 376.444 96.0409 375.693 97.0356C374.943 98.0303 373.598 98.5219 372.285 98.2812L363.022 96.5825L367.637 112.016C368.11 113.6 367.061 115.227 365.294 115.652C363.527 116.076 361.711 115.136 361.237 113.553L356.623 98.1194L349.55 103.741C348.548 104.538 347.108 104.715 345.904 104.189C344.699 103.664 343.965 102.54 344.046 101.342L346.556 63.8572C346.642 62.5817 347.628 61.4982 349.005 61.1675ZM311.25 68.5625C311.25 66.9229 312.733 65.5938 314.562 65.5938H324.5C326.329 65.5938 327.812 66.9229 327.812 68.5625C327.812 70.2021 326.329 71.5312 324.5 71.5312H314.562C312.733 71.5312 311.25 70.2021 311.25 68.5625ZM374.188 68.5625C374.188 66.9229 375.671 65.5938 377.5 65.5938H387.438C389.267 65.5938 390.75 66.9229 390.75 68.5625C390.75 70.2021 389.267 71.5312 387.438 71.5312H377.5C375.671 71.5312 374.188 70.2021 374.188 68.5625ZM334.604 83.2571C335.898 84.4164 335.898 86.2961 334.604 87.4555L327.577 93.7532C326.283 94.9126 324.186 94.9126 322.893 93.7532C321.599 92.5938 321.599 90.7141 322.893 89.5547L329.919 83.2571C331.213 82.0977 333.31 82.0977 334.604 83.2571Z" fill="#E6EEF4"/>
</svg>
